<?xml version="1.0" encoding="UTF-8" standalone="no"?>
<!-- Generator: Adobe Illustrator 19.0.0, SVG Export Plug-In . SVG Version: 6.00 Build 0)  -->

<svg
xmlns:dc="http://purl.org/dc/elements/1.1/"
xmlns:cc="http://creativecommons.org/ns#"
xmlns:rdf="http://www.w3.org/1999/02/22-rdf-syntax-ns#"
xmlns:svg="http://www.w3.org/2000/svg"
xmlns="http://www.w3.org/2000/svg"
xmlns:sodipodi="http://sodipodi.sourceforge.net/DTD/sodipodi-0.dtd"
xmlns:inkscape="http://www.inkscape.org/namespaces/inkscape"
version="1.1"
id="Capa_1"
x="0px"
y="0px"
viewBox="0 0 100 100"
xml:space="preserve"
sodipodi:docname="heartbeat.svg"
inkscape:version="0.92.2 5c3e80d, 2017-08-06"
width="100"
height="100"><metadata
 id="metadata49"><rdf:RDF><cc:Work
     rdf:about=""><dc:format>image/svg+xml</dc:format><dc:type
       rdf:resource="http://purl.org/dc/dcmitype/StillImage" /><dc:title></dc:title></cc:Work></rdf:RDF></metadata><defs
 id="defs47" /><sodipodi:namedview
 pagecolor="#ffffff"
 bordercolor="#666666"
 borderopacity="1"
 objecttolerance="10"
 gridtolerance="10"
 guidetolerance="10"
 inkscape:pageopacity="0"
 inkscape:pageshadow="2"
 inkscape:window-width="1448"
 inkscape:window-height="849"
 id="namedview45"
 showgrid="false"
 inkscape:zoom="3.3920001"
 inkscape:cx="42.664772"
 inkscape:cy="79.025736"
 inkscape:window-x="0"
 inkscape:window-y="0"
 inkscape:window-maximized="0"
 inkscape:current-layer="Capa_1"
 inkscape:showpageshadow="false" /><g
 id="g6"
 transform="matrix(0.1953125,0,0,0.21020179,0,-4.16123)"
 style="opacity:0.13;fill:#000000"><g
   id="g4"
   style="fill:#000000"><path
     d="M 376,33 C 315.341,33 276.405,75.012 256,112.849 235.595,75.011 196.659,33 136,33 59.037,33 0,95.446 0,178.268 0,199.878 4.327,219.829 12.294,239 h 114.434 l 25.854,-51.709 c 5.098,-10.166 21.738,-10.166 26.836,0 L 226,280.456 242.582,247.292 c 5.098,-10.166 21.738,-10.166 26.836,0 L 286,280.456 332.582,187.292 c 5.098,-10.166 21.738,-10.166 26.836,0 L 385.272,239 H 499.706 C 507.673,219.829 512,199.878 512,178.268 512,95.446 452.963,33 376,33 Z"
     id="path2"
     inkscape:connector-curvature="0"
     style="fill:#000000" /></g></g><g
 id="g12"
 transform="matrix(0.1953125,0,0,0.21020179,0,-4.16123)"
 style="opacity:0.13;fill:#000000"><g
   id="g10"
   style="fill:#000000"><path
     d="m 376,269 c -5.684,0 -10.869,-3.208 -13.418,-8.291 L 346,227.545 299.418,320.709 C 296.869,325.792 291.684,329 286,329 c -5.684,0 -10.869,-3.208 -13.418,-8.291 L 256,287.545 239.418,320.709 c -5.098,10.166 -21.738,10.166 -26.836,0 L 166,227.545 149.418,260.709 C 146.869,265.792 141.684,269 136,269 H 28.037 c 30.873,48.574 86.474,94.713 156.024,153.413 19.526,16.479 40.298,34.014 62.109,52.925 2.827,2.446 6.328,3.662 9.829,3.662 3.501,0 7.002,-1.216 9.829,-3.662 21.812,-18.911 42.583,-36.445 62.109,-52.925 C 397.488,363.713 453.088,317.574 483.961,269 Z"
     id="path8"
     inkscape:connector-curvature="0"
     style="fill:#000000" /></g></g><g
 id="g14"
 transform="matrix(0.1953125,0,0,0.21020179,0,-4.16123)"
 style="opacity:0.13;fill:#000000" /><g
 id="g16"
 transform="matrix(0.1953125,0,0,0.21020179,0,-4.16123)"
 style="opacity:0.13;fill:#000000" /><g
 id="g18"
 transform="matrix(0.1953125,0,0,0.21020179,0,-4.16123)"
 style="opacity:0.13;fill:#000000" /><g
 id="g20"
 transform="matrix(0.1953125,0,0,0.21020179,0,-4.16123)"
 style="opacity:0.13;fill:#000000" /><g
 id="g22"
 transform="matrix(0.1953125,0,0,0.21020179,0,-4.16123)"
 style="opacity:0.13;fill:#000000" /><g
 id="g24"
 transform="matrix(0.1953125,0,0,0.21020179,0,-4.16123)"
 style="opacity:0.13;fill:#000000" /><g
 id="g26"
 transform="matrix(0.1953125,0,0,0.21020179,0,-4.16123)"
 style="opacity:0.13;fill:#000000" /><g
 id="g28"
 transform="matrix(0.1953125,0,0,0.21020179,0,-4.16123)"
 style="opacity:0.13;fill:#000000" /><g
 id="g30"
 transform="matrix(0.1953125,0,0,0.21020179,0,-4.16123)"
 style="opacity:0.13;fill:#000000" /><g
 id="g32"
 transform="matrix(0.1953125,0,0,0.21020179,0,-4.16123)"
 style="opacity:0.13;fill:#000000" /><g
 id="g34"
 transform="matrix(0.1953125,0,0,0.21020179,0,-4.16123)"
 style="opacity:0.13;fill:#000000" /><g
 id="g36"
 transform="matrix(0.1953125,0,0,0.21020179,0,-4.16123)"
 style="opacity:0.13;fill:#000000" /><g
 id="g38"
 transform="matrix(0.1953125,0,0,0.21020179,0,-4.16123)"
 style="opacity:0.13;fill:#000000" /><g
 id="g40"
 transform="matrix(0.1953125,0,0,0.21020179,0,-4.16123)"
 style="opacity:0.13;fill:#000000" /><g
 id="g42"
 transform="matrix(0.1953125,0,0,0.21020179,0,-4.16123)"
 style="opacity:0.13;fill:#000000" /></svg>