<svg width="62" height="80" viewBox="0 0 62 80" fill="none" xmlns="http://www.w3.org/2000/svg">
<path d="M47.3344 80H15.442C13.0365 70.5253 14.6661 59.446 14.8212 47.9083C14.8212 46.915 14.8212 45.9981 14.8212 45.0048C14.8212 42.8653 14.7436 40.8023 14.5109 38.6628H47.7224C47.4896 41.1843 47.412 43.7822 47.412 46.4565C47.412 47.297 47.412 48.1375 47.412 48.978C47.6448 59.5224 49.0415 70.3725 47.3344 80Z" fill="#4AA2B7"/>
<path d="M25.5295 15.5874C25.3743 16.1223 25.0639 16.5807 24.6759 16.8864C24.2879 17.2684 23.8224 17.4976 23.2792 17.7269C22.5808 18.1089 21.8048 18.4145 21.0289 18.4145C20.7185 18.4145 20.4081 18.4145 20.1753 18.3381C20.2529 18.2617 20.3305 18.1089 20.3305 18.0325C20.7185 17.4212 21.1065 16.81 21.572 16.4279C21.8048 16.2751 22.1152 16.1223 22.348 15.9695C22.8912 15.6638 23.4344 15.2818 23.9775 14.8997C24.1327 14.7469 24.3655 14.6705 24.5207 14.5177C24.7535 14.4413 24.9863 14.4413 25.1415 14.5177C25.6071 14.7469 25.6071 15.2054 25.5295 15.5874Z" fill="#E0B68E"/>
<path d="M24.9863 13.7536C25.0639 14.2885 25.0639 14.8233 25.2967 15.3582C25.4519 15.893 25.8399 16.3515 26.3055 16.5043C26.7711 16.7335 29.2542 16.2751 29.5645 15.8166C28.1678 15.7402 25.9175 15.3582 24.9863 13.7536Z" fill="#3C3C3B"/>
<path d="M61.1468 36.5999C61.1468 36.6763 61.1468 36.6763 61.1468 36.5999C60.8365 37.4404 60.2157 38.2044 59.5949 38.8921C59.5949 38.8921 59.5949 38.9685 59.5173 38.9685C56.5686 42.1777 50.8264 44.852 47.4898 48.9781C47.0242 49.5129 46.6362 50.0478 46.3258 50.6591C45.705 50.3534 45.0843 49.9714 44.5411 49.5129C44.0755 49.1309 43.6099 48.6724 43.1443 48.214C41.0492 45.9981 39.2645 42.9418 38.3333 40.6495C38.3333 40.5731 38.2557 40.5731 38.2557 40.4967C38.0229 40.0383 37.8677 39.5034 38.0229 38.9685C38.0229 38.8921 38.1005 38.7393 38.1005 38.6629C38.2557 38.3573 38.4109 37.9752 38.7213 37.746C38.9541 37.5168 39.2645 37.2875 39.6525 37.2111C42.2908 36.5234 46.4034 34.9189 49.2745 33.8491C49.7401 33.6963 50.2057 33.4671 50.5936 33.3907C53.3871 32.321 55.8702 31.4805 58.7413 32.4738C59.8277 32.8558 60.9916 33.5435 61.3796 34.6132C61.3796 34.6896 61.4572 34.766 61.4572 34.8425C61.4572 35.4537 61.3796 36.065 61.1468 36.5999Z" fill="#4AA2B7"/>
<path d="M23.5896 39.4269C23.5896 39.8854 23.4344 40.2674 23.2792 40.6495C23.2016 40.8023 23.124 40.9551 23.0464 41.1079C22.0376 43.2474 20.4081 45.1576 18.5458 46.6094C18.0802 46.9914 17.537 47.3735 16.9938 47.6791C16.5282 47.9083 16.0627 48.1375 15.5971 48.3668C15.3643 48.214 15.0539 47.9847 14.8211 47.8319C14.8211 47.8319 14.7435 47.8319 14.7435 47.7555C10.9413 45.1576 5.66466 43.2474 2.56078 39.8854C1.94001 39.1977 1.24164 38.4336 0.931248 37.5931C0.931248 37.5931 0.931248 37.5931 0.931248 37.5167C0.698457 37.0583 0.62086 36.447 0.776054 35.9121C1.08644 34.6896 2.32799 33.9255 3.49195 33.4671C6.36304 32.4738 8.76854 33.3143 11.6396 34.384C14.4331 35.3773 18.7786 36.2942 21.8048 37.1347C21.8824 37.1347 21.96 37.1347 22.0376 37.2111C22.736 37.3639 23.2792 37.9752 23.5896 38.6629C23.5896 38.7393 23.6672 38.8921 23.6672 38.9685C23.5896 39.1213 23.5896 39.2741 23.5896 39.4269Z" fill="#4AA2B7"/>
<path d="M25.1416 35.7593C26.228 39.3506 26.6159 41.8721 29.099 42.6361C29.6422 43.4766 30.1854 45.3104 30.4958 45.8453C30.8062 45.1576 31.039 43.3238 31.6597 42.4069C35.2292 41.5664 34.9188 39.1213 36.3932 35.6829L35.9276 31.3276L25.6848 31.6333L25.1416 35.7593Z" fill="#E0B68E"/>
<path d="M39.4975 37.1347L35.8504 45.9981L34.1433 44.5464L33.3673 43.9351L31.6602 42.4833C34.4537 41.4136 35.152 38.6629 36.3936 35.7593L39.4975 37.1347Z" fill="#61C3DA"/>
<path d="M29.0993 42.6361L27.7025 43.6294L26.9265 44.1643L24.6762 45.8453L21.7275 37.1347L25.1418 35.7593C26.1506 38.3572 26.5386 41.1844 29.0993 42.6361Z" fill="#61C3DA"/>
<path d="M30.6512 17.1155C25.9953 17.1155 22.2707 20.1719 22.6587 25.6733C22.7363 26.2846 22.8139 26.8959 22.8915 27.5835C21.8827 26.9723 20.9515 28.042 21.3395 29.5702C21.5723 30.6399 22.1931 32.1681 22.7363 32.3209C23.5122 32.5501 23.6674 32.0917 23.745 32.0917C24.0554 33.6963 24.2106 35.0716 24.8314 35.9121C25.5298 36.9054 26.0729 37.6695 26.5385 38.2044C27.6249 39.5033 28.556 39.809 30.6512 39.809C32.7463 39.809 33.6774 39.5033 34.7638 38.2044C35.2294 37.6695 35.7726 36.9054 36.4709 35.9121C37.0141 35.0716 37.1693 33.6963 37.5573 32.0917C37.6349 32.0917 37.7901 32.5501 38.566 32.3209C39.1868 32.0917 39.73 30.6399 39.9628 29.5702C40.3508 28.042 39.4196 26.9723 38.4109 27.5835C38.566 26.9723 38.6436 26.361 38.6436 25.6733C39.0316 20.1719 35.307 17.1155 30.6512 17.1155Z" fill="#FFCFA1"/>
<path d="M23.9002 18.7202C22.1155 20.7832 21.5723 23.0755 22.2707 27.3543C22.9691 27.7364 23.3571 28.2713 23.6674 30.3343C24.2106 30.4871 24.3658 30.4871 24.8314 30.6399C21.9603 19.4078 26.3833 19.1786 27.6249 18.9494C28.6337 18.7202 32.6687 18.7202 33.6775 18.9494C34.919 19.1786 39.342 19.4078 36.4709 30.6399C36.9365 30.4871 37.1693 30.4871 37.6349 30.3343C37.9453 28.1948 38.2557 27.7364 39.0316 27.3543C39.73 23.1519 38.9541 21.0124 37.4021 18.7202C35.2294 15.5874 27.0817 15.0525 23.9002 18.7202Z" fill="#3C3C3B"/>
<path d="M32.2029 14.9762C32.0477 15.511 31.8925 15.7402 31.8149 15.8931C32.5908 15.6638 34.1428 14.5941 34.7636 14.5177C33.2892 18.491 29.4094 22.6934 25.7623 23.3811C26.1503 22.9227 26.5383 22.4642 26.9263 22.0058C25.0639 22.5406 23.124 23.0755 21.2617 23.6868C21.8825 22.3878 22.5808 21.0889 23.2016 19.8663C22.5032 20.0955 21.8049 20.3248 21.1841 20.6304C22.9688 17.4212 26.3831 15.5874 29.7198 15.9695C29.5646 15.8166 29.2542 15.4346 29.0214 15.2054C29.7974 15.2818 30.1077 15.2054 30.8837 15.7402C31.1165 15.2818 31.6597 15.129 32.2029 14.9762Z" fill="#3C3C3B"/>
<path d="M31.4272 20.4776C32.5136 21.3181 33.8327 21.9294 35.1519 22.1586C34.9191 21.7765 34.6087 21.4709 34.3759 21.0889C36.0054 21.3945 37.635 21.6237 39.3421 21.9294C39.0317 20.554 38.411 19.255 37.5574 18.1853C37.9454 18.1853 38.3334 18.1853 38.6437 18.1853C36.7814 16.1987 33.5999 15.5874 31.3496 17.1156C30.8064 17.4976 30.4961 18.1089 30.4185 18.873C30.4185 19.5607 30.9616 20.0955 31.4272 20.4776Z" fill="#3C3C3B"/>
<path d="M30.1079 17.2684C29.9527 17.6505 29.4871 17.7269 29.0991 17.7269C27.9352 17.8033 26.7712 18.0325 25.6849 18.3382C24.9865 18.5674 24.3657 18.7966 23.9777 19.4079C23.8225 19.6371 23.6673 19.9427 23.5897 20.2484C23.357 21.1653 23.1242 22.0822 22.8138 22.9227C22.4258 23.7632 21.8826 24.6037 21.029 25.0621C20.1755 25.5206 19.0115 25.4442 18.3907 24.7565C17.8476 24.2216 17.6924 23.3047 17.8476 22.5406C18.0028 21.7766 18.3907 21.0889 18.8563 20.4012C19.3219 19.7135 19.7099 18.9494 20.1755 18.2617C20.2531 18.1853 20.3307 18.0325 20.3307 17.9561C20.7187 17.3448 21.1066 16.7336 21.5722 16.3515C21.6498 16.2751 21.7274 16.1987 21.805 16.1223C21.9602 16.0459 22.1154 15.9695 22.3482 15.8931C22.969 15.6638 23.6673 15.5874 24.3657 15.5874C24.7537 15.5874 25.1417 15.5874 25.4521 15.511C26.6936 15.4346 27.9352 15.2818 29.0991 16.1987C29.3319 16.3515 29.5647 16.3515 29.7975 16.5043C30.0303 16.6572 30.1855 17.0392 30.1079 17.2684Z" fill="#FFCFA1"/>
<path d="M18.1579 27.8892C16.2179 30.1815 12.9589 33.0086 11.6397 34.384C7.99265 38.128 5.97513 38.5865 1.00892 37.746C1.00892 37.746 1.00892 37.746 0.931323 37.6696C0.931323 37.5931 0.853726 37.5931 0.853726 37.5167C0.000158444 36.2942 -0.155036 34.6132 0.388144 33.1614C0.931323 31.6333 2.09528 30.4107 3.41443 29.4938C4.73358 28.5769 7.99265 26.8959 9.54459 26.2846C11.5621 25.4441 13.502 24.6037 15.5196 23.7632C15.7524 23.6867 15.9851 23.5339 16.2179 23.4575C16.6835 24.3744 17.6147 26.8959 18.1579 27.8892Z" fill="#4AA2B7"/>
<path d="M20.4857 25.9026L18.1578 27.8892L15.4419 23.7632L17.6922 22.1586L20.4857 25.9026Z" fill="#61C3DA"/>
<path d="M35.9276 15.5874C36.0828 16.1223 36.3932 16.5807 36.7812 16.8864C37.1692 17.2684 37.6348 17.4976 38.1779 17.7269C38.8763 18.1089 39.6523 18.4145 40.4282 18.4145C40.7386 18.4145 41.049 18.4145 41.2818 18.3381C41.2042 18.2617 41.1266 18.1089 41.1266 18.0325C40.7386 17.4212 40.3506 16.81 39.8851 16.4279C39.6523 16.2751 39.3419 16.1223 39.1091 15.9695C38.5659 15.6638 38.0227 15.2818 37.4796 14.8997C37.3244 14.7469 37.0916 14.6705 36.9364 14.5177C36.7036 14.4413 36.4708 14.4413 36.3156 14.5177C35.85 14.7469 35.85 15.2054 35.9276 15.5874Z" fill="#E0B68E"/>
<path d="M31.3493 17.2684C31.5045 17.6505 31.9701 17.7269 32.358 17.7269C33.522 17.8033 34.686 18.0325 35.7723 18.3382C36.4707 18.5674 37.0915 18.7966 37.4794 19.4079C37.6346 19.6371 37.7898 19.9427 37.8674 20.2484C38.1002 21.1653 38.333 22.0822 38.6434 22.9227C39.0314 23.7632 39.5746 24.6037 40.4281 25.0621C41.2817 25.5206 42.4457 25.4442 43.0664 24.7565C43.6096 24.2216 43.7648 23.3047 43.6096 22.5406C43.4544 21.7766 43.0664 21.0889 42.6008 20.4012C42.1353 19.7135 41.7473 18.9494 41.2817 18.2617C41.2041 18.1853 41.1265 18.0325 41.1265 17.9561C40.7385 17.3448 40.3505 16.7336 39.885 16.3515C39.8074 16.2751 39.7298 16.1987 39.6522 16.1223C39.497 16.0459 39.3418 15.9695 39.109 15.8931C38.4882 15.6638 37.7898 15.5874 37.0915 15.5874C36.7035 15.5874 36.3155 15.5874 36.0051 15.511C34.7636 15.4346 33.522 15.2818 32.358 16.1987C32.1253 16.3515 31.8925 16.3515 31.6597 16.5043C31.4269 16.7336 31.2717 17.0392 31.3493 17.2684Z" fill="#FFCFA1"/>
<path d="M61.069 36.6762C60.4482 36.8291 59.9051 36.9055 59.2843 36.9819C55.4044 37.4403 52.5334 36.7527 49.0415 33.8491C47.3344 32.4738 45.472 30.4871 43.2993 27.8892C43.8425 26.8959 44.7737 24.3744 45.2392 23.3811C45.3944 23.4575 45.6272 23.5339 45.86 23.6103C48.2655 24.4508 52.223 25.3677 54.3181 26.2082C55.7924 26.8195 57.3444 27.5072 58.6635 28.4241C59.9827 29.341 61.1466 30.5635 61.6898 32.0917C61.845 32.4738 61.9226 32.8558 62.0002 33.3143C62.1554 34.5368 61.845 35.7593 61.069 36.6762Z" fill="#4AA2B7"/>
<path d="M40.9712 25.9026L43.2991 27.8892L46.0926 23.7632L43.7647 22.1586L40.9712 25.9026Z" fill="#61C3DA"/>
<path d="M26.3057 18.7966C27.4697 19.4079 29.0216 19.255 29.9528 18.3381C28.1681 17.8797 26.3057 17.4976 24.521 17.0392C25.0642 17.6505 25.5298 18.3381 26.3057 18.7966Z" fill="#3C3C3B"/>
<path d="M32.2031 18.1089C33.2119 17.7268 34.2207 17.4976 35.307 17.4212C34.7638 17.574 34.531 18.1853 34.0655 18.4909C33.7551 18.6437 33.3671 18.6437 33.0567 18.5673C32.8239 18.4145 32.5135 18.2617 32.2031 18.1089Z" fill="#3C3C3B"/>
<path opacity="0.1" d="M28.013 80H15.4422C13.0367 70.5253 14.6663 59.446 14.8215 47.9083C14.8215 47.9083 14.7439 47.9083 14.7439 47.8319C10.9416 45.234 5.66502 43.3238 2.56114 39.9618C1.94036 39.2741 1.24199 38.51 0.931601 37.6695C0.931601 37.5931 0.854004 37.5931 0.854004 37.5167C0.854004 37.5931 0.931601 37.5931 0.931601 37.5931C0.931601 37.6695 1.0092 37.6695 1.08679 37.746C2.32835 38.9685 3.88029 40.0382 5.35463 41.0315C8.22572 42.8653 11.4848 44.7756 14.7439 45.0048C15.8302 45.0812 16.9166 44.9284 17.9253 44.6227C17.3822 45.6161 17.0718 46.6858 16.9166 47.7555C16.5286 50.1242 16.9166 52.6457 18.0029 54.8615C19.5549 58.0707 22.2708 60.5922 25.4523 62.2732C22.7364 61.5855 20.0981 60.363 17.8477 58.7584C19.7877 62.808 22.8916 66.2464 26.7714 68.6151C23.4347 67.851 20.2533 66.3993 17.5374 64.489C17.1494 69.2264 19.7877 73.8109 23.3571 76.9437C24.8315 78.0134 26.3834 79.0831 28.013 80Z" fill="black"/>
<path opacity="0.1" d="M61.069 36.6763C60.7587 37.5168 60.1379 38.2808 59.5171 38.8921C59.5171 38.8921 59.5171 38.9685 59.4395 38.9685C56.4908 42.1777 50.7486 44.852 47.412 48.9781C47.6448 59.5225 49.0415 70.3725 47.3344 80H42.2906C43.7649 77.6314 45.2392 75.2627 45.86 72.6648C46.3256 70.6782 46.3256 68.6915 46.4032 66.6285C46.4032 63.2665 46.4808 59.9045 46.4808 56.4661C45.9376 57.001 45.1617 57.3066 44.3857 57.2302C45.6272 56.5425 46.4808 55.2436 46.5584 53.8682C45.0065 54.8615 43.0665 55.32 41.2042 55.1672C43.3769 54.7087 45.3168 53.1806 46.3256 51.2703C43.8425 50.8119 41.5146 49.8186 39.4971 48.3668C40.7386 48.5196 41.9026 48.4432 43.0665 48.214C44.5409 47.9083 46.0152 47.2207 47.412 46.4566C48.9639 45.5397 50.5159 44.47 51.9126 43.4002C54.5509 41.4136 57.1892 39.3506 59.3619 36.9819C60.0603 36.2178 60.6811 35.4537 61.2242 34.6132C61.5346 34.2312 61.7674 33.7727 62.0002 33.3143C62.1554 34.5368 61.845 35.7594 61.069 36.6763Z" fill="black"/>
<path d="M14.5886 3.97327L12.1831 6.0363L17.2269 9.09265L13.0367 10.6972L21.4947 15.2818L16.6837 11.2321L21.1844 9.70392L14.5886 3.97327Z" fill="#C44645"/>
<path d="M26.1506 0.534851L23.0467 1.37535L26.1506 6.34192L21.7275 5.95988L27.3145 13.7536L24.7538 7.9465L29.4872 8.55777L26.1506 0.534851Z" fill="#C44645"/>
<path d="M38.1007 0.687679L34.9192 0L35.4624 5.80707L31.6602 3.5148L33.0569 12.9131L33.4449 6.64756L37.4023 9.24546L38.1007 0.687679Z" fill="#C44645"/>
<path d="M49.6621 7.33523L47.4894 4.96655L44.3855 9.93312L42.756 5.88346L38.1777 14.2884L42.2128 9.39826L43.8423 13.83L49.6621 7.33523Z" fill="#C44645"/>
</svg>
