<svg width="61" height="74" viewBox="0 0 61 74" fill="none" xmlns="http://www.w3.org/2000/svg">
<path d="M51.1128 22.8743L47.5817 8.53516C43.1678 9.04727 38.136 11.0104 37.0767 10.925L40.1664 32.519C40.0781 32.519 48.6411 27.4833 51.1128 22.8743Z" fill="#E0B68E"/>
<path d="M60.9998 74H32.486C32.3095 72.549 32.0446 70.3299 31.7798 67.5133C30.9853 56.9296 31.0736 38.579 39.46 28.6782L51.0244 22.7889C58.3514 30.0438 60.2936 52.1499 60.9998 74Z" fill="#4AA2B7"/>
<path opacity="0.1" d="M60.9115 74H32.486C32.3095 72.549 32.0446 70.3299 31.7798 67.5133H31.8681C32.9274 67.3426 34.075 67.1719 35.1343 66.8305C40.6076 65.2941 44.1387 60.3437 46.6105 55.4787C49.6119 49.504 51.554 43.1027 52.4368 36.5306C54.6438 43.4441 54.2024 50.8697 54.2906 58.1246C54.2906 60.3437 54.3789 62.6482 55.0851 64.8674C56.0562 68.3668 58.3514 71.3541 60.9115 74Z" fill="#1D1D1B"/>
<path d="M50.0533 15.1926C50.5829 13.0588 50.6712 10.5836 50.4064 8.36446C48.5525 -1.6217 41.3137 -0.170724 37.4295 0.426739C32.9274 1.28026 29.1314 4.77968 29.8376 11.6078C30.1907 12.2053 30.5438 12.7174 30.5438 12.7174L29.5728 16.6436C29.3962 17.3264 29.9259 17.9239 30.6321 18.0092L31.6915 18.0946C31.7797 18.7774 32.1329 21.6793 32.1329 21.6793C32.486 23.3864 33.8101 25.5202 35.9288 25.1788L38.1357 24.752C40.7841 24.0692 44.4035 20.3991 43.609 15.9608C45.198 15.6194 49.6119 16.8143 50.0533 15.1926Z" fill="#FFCFA1"/>
<path d="M50.4065 5.71853C49.612 3.32868 44.7567 3.49939 41.4905 4.1822C38.8421 4.69431 37.4297 7.51092 38.489 9.90077C39.107 11.2664 39.9015 12.9734 40.3429 15.534C41.4022 15.4486 41.4022 15.4486 42.5498 15.2779C42.9912 14.5098 44.2271 11.8639 44.2271 11.8639C44.2271 11.8639 41.4022 20.2283 48.2879 17.7531C52.1721 15.79 52.0838 10.4129 50.4065 5.71853Z" fill="#614F49"/>
<path d="M45.5509 12.2906C45.8158 13.9123 44.6682 15.8754 43.6088 16.0461C42.5495 16.2168 42.4612 14.8512 42.1964 13.3148C42.0198 12.2906 41.5784 10.8396 42.6378 10.3275C43.6971 9.90078 45.1978 9.98613 45.5509 12.2906Z" fill="#FFCFA1"/>
<path d="M10.4165 69.391L9.3572 69.3056L7.85647 68.9642L5.29642 66.8304C4.94331 66.5744 4.50192 66.489 4.06053 66.6597L3.26603 65.9769C2.82464 65.5502 2.11841 65.6355 1.67702 66.0623C1.58875 66.1476 1.50047 66.3183 1.50047 66.4037C1.14736 66.4037 0.705968 66.5744 0.529413 66.9158C0.176301 67.4279 0.352857 68.1961 0.882524 68.5375L4.85503 71.098C4.85503 71.098 4.94331 71.098 4.94331 71.1834C4.94331 71.1834 5.03158 71.1834 5.03158 71.2687H5.11986H5.20814L9.97514 71.7808C10.6814 71.8662 11.211 71.3541 11.2993 70.7566C11.4759 70.0738 11.0345 69.4763 10.4165 69.391Z" fill="#F2C194"/>
<path d="M52.5257 46.0046L50.5836 61.1119L49.8773 66.6597C49.7008 67.4279 48.9946 68.2814 48.1118 68.9642C47.229 69.7324 46.0814 70.0738 44.9338 70.0738L22.776 69.9885L22.5112 68.2814L22.0698 65.7209L37.3419 61.0265L37.5184 59.7462L39.3723 44.0415L52.3491 45.9192L52.5257 46.0046Z" fill="#FFCFA1"/>
<path d="M53.8495 35.421L52.7902 43.3587L52.5254 45.0657L52.4371 45.9192H52.2605L39.2837 44.0415V43.7001L40.4313 33.7139C40.8727 30.2145 44.139 27.7393 47.7584 28.0807H47.9349C51.7309 28.5928 54.3792 31.8362 53.8495 35.421Z" fill="#4AA2B7"/>
<path d="M22.7756 69.9884L18.7148 70.842C15.9782 71.9515 12.5354 72.3783 11.2995 72.4636C11.0347 72.4636 10.6815 72.549 10.505 72.549C10.2402 72.549 9.88704 72.549 9.35738 72.4636C7.85665 72.3783 5.73798 72.1222 5.73798 72.1222L0.794423 70.3298C0.176478 70.0738 -0.0883552 69.391 0.176478 68.7935C0.441312 68.196 1.14753 67.94 1.76548 68.1107L5.91454 69.7324L10.3284 69.391C10.3284 69.391 11.1229 68.8789 12.2705 68.1961L10.1519 68.1107C9.44565 68.1107 9.00426 67.5132 9.00426 66.9158C9.00426 66.233 9.62221 65.8062 10.2402 65.8062L14.5658 65.9769C14.8306 65.9769 15.0072 65.9769 15.272 65.8916L18.9797 65.2087C19.0679 65.2087 19.1562 65.2087 19.2445 65.2087L22.0694 65.7208L22.5108 68.2814L22.7756 69.9884Z" fill="#FFCFA1"/>
<path d="M21.3633 60.9412C19.686 60.9412 18.3618 59.6609 18.3618 58.0392V43.188H19.686V58.1245C19.686 58.9781 20.3922 59.6609 21.275 59.6609H36.7236C37.165 59.6609 37.6064 59.4902 37.8712 59.1488C38.136 58.8927 38.3126 58.466 38.3126 58.0392H39.6368C39.6368 58.8074 39.3719 59.4902 38.754 60.0876C38.2243 60.5998 37.4298 60.9412 36.6353 60.9412H21.3633Z" fill="#575756"/>
<path d="M20.4806 41.2249H17.5674V45.1511H20.4806V41.2249Z" fill="#9D9D9C"/>
<path d="M19.0681 41.5663C15.1839 41.5663 12.0059 38.4937 12.0059 34.7382C12.0059 30.9827 15.1839 27.91 19.0681 27.91C22.9523 27.91 26.1303 30.9827 26.1303 34.7382C26.1303 38.4937 22.9523 41.5663 19.0681 41.5663ZM19.0681 29.105C15.8901 29.105 13.2417 31.6655 13.2417 34.7382C13.2417 37.8108 15.8901 40.3714 19.0681 40.3714C22.2461 40.3714 24.8944 37.8108 24.8944 34.7382C24.8061 31.5802 22.2461 29.105 19.0681 29.105Z" fill="#575756"/>
<path d="M18.9799 30.8973C20.4806 30.8973 21.7165 31.6655 22.4227 32.7751C22.5993 33.0311 22.6875 33.3725 22.7758 33.6286L21.2751 34.0554C21.1868 33.8846 21.0985 33.7139 21.0103 33.5432C20.5689 32.7751 19.7744 32.3483 18.8916 32.3483L18.9799 30.8973Z" fill="#C44645"/>
<path d="M22.8642 33.6286C23.129 34.6528 23.0407 35.677 22.511 36.6159C21.8048 37.8108 20.4807 38.4937 19.0682 38.4937C17.6558 38.4937 16.3316 37.7255 15.6254 36.6159C14.9191 35.421 14.9191 33.97 15.6254 32.7751C16.3316 31.5802 17.6558 30.8973 19.0682 30.8973V32.3483C18.1854 32.3483 17.3909 32.7751 16.9495 33.5432C16.5081 34.3114 16.5081 35.1649 16.9495 35.9331C17.3909 36.7013 18.1854 37.128 19.0682 37.128C19.951 37.128 20.7455 36.7013 21.1869 35.9331C21.54 35.3356 21.6283 34.7382 21.4517 34.0554L22.8642 33.6286Z" fill="#E8DFD1"/>
<path d="M15.2725 33.5432C15.3607 33.2872 15.449 33.0311 15.6256 32.7751C16.3318 31.5802 17.656 30.8973 19.0684 30.8973V32.3483C18.1856 32.3483 17.3911 32.7751 16.9497 33.5432C16.8615 33.7139 16.7732 33.8846 16.7732 33.97L15.2725 33.5432Z" fill="#4AB775"/>
<path d="M14.213 34.3114C14.3895 34.3114 14.5661 34.4821 14.5661 34.6528C14.5661 34.8235 14.3895 34.9942 14.213 34.9942C14.0364 34.9942 13.8599 34.8235 13.8599 34.6528C13.7716 34.4821 13.9482 34.3114 14.213 34.3114Z" fill="#3C3C3B"/>
<path d="M23.8355 34.3114C24.0121 34.3114 24.1886 34.4821 24.1886 34.6528C24.1886 34.8235 24.0121 34.9942 23.8355 34.9942C23.659 34.9942 23.4824 34.8235 23.4824 34.6528C23.4824 34.4821 23.659 34.3114 23.8355 34.3114Z" fill="#3C3C3B"/>
<path d="M19.4211 29.9585C19.4211 30.1292 19.2445 30.2999 19.068 30.2999C18.8914 30.2999 18.7148 30.1292 18.7148 29.9585C18.7148 29.7878 18.8914 29.6171 19.068 29.6171C19.2445 29.6171 19.4211 29.7878 19.4211 29.9585Z" fill="#3C3C3B"/>
<path d="M19.4211 39.3472C19.4211 39.5179 19.2445 39.6886 19.068 39.6886C18.8914 39.6886 18.7148 39.5179 18.7148 39.3472C18.7148 39.1765 18.8914 39.0058 19.068 39.0058C19.2445 39.0058 19.4211 39.1765 19.4211 39.3472Z" fill="#3C3C3B"/>
<path d="M15.3604 37.7255C15.537 37.5548 15.8018 37.5548 15.8901 37.7255C16.0667 37.8962 16.0667 38.1523 15.8901 38.2376C15.7136 38.4083 15.4487 38.4083 15.3604 38.2376C15.1839 38.1523 15.1839 37.8962 15.3604 37.7255Z" fill="#3C3C3B"/>
<path d="M22.1578 31.068C22.3344 30.8973 22.5992 30.8973 22.6875 31.068C22.864 31.2387 22.864 31.4948 22.6875 31.5801C22.5109 31.7508 22.2461 31.7508 22.1578 31.5801C21.9813 31.4948 21.9813 31.2387 22.1578 31.068Z" fill="#3C3C3B"/>
<path d="M15.8901 31.0669C16.0667 31.2376 16.0667 31.4936 15.8901 31.579C15.7136 31.7497 15.4487 31.7497 15.3604 31.579C15.1839 31.4083 15.1839 31.1522 15.3604 31.0669C15.4487 30.9815 15.7136 30.9815 15.8901 31.0669Z" fill="#3C3C3B"/>
<path d="M22.4224 38.323C22.6175 38.323 22.7756 38.1701 22.7756 37.9815C22.7756 37.793 22.6175 37.6401 22.4224 37.6401C22.2274 37.6401 22.0693 37.793 22.0693 37.9815C22.0693 38.1701 22.2274 38.323 22.4224 38.323Z" fill="#3C3C3B"/>
<path d="M20.1272 35.2503C19.7741 35.8478 19.0679 36.1039 18.3617 35.7624C17.7437 35.421 17.4789 34.7382 17.832 34.0554C18.1851 33.4579 18.8913 33.2019 19.5975 33.5433C20.3038 33.8847 20.4803 34.6529 20.1272 35.2503Z" fill="#575756"/>
<path d="M18.7148 34.3968L21.2749 30.556L19.5093 34.8236L18.7148 34.3968Z" fill="#575756"/>
<path d="M36.9882 63.4163H8.47449C6.79721 63.4163 5.38477 62.0507 5.38477 60.429V42.1638H6.70893V60.429C6.70893 61.3679 7.50343 62.1361 8.47449 62.1361H36.9882C38.9304 62.1361 40.4311 60.5997 40.4311 58.8074V57.1857H41.7552V58.722C41.7552 61.2826 39.6366 63.4163 36.9882 63.4163Z" fill="#575756"/>
<path d="M7.32725 48.3091H4.85547V51.7231H7.32725V48.3091Z" fill="#C44645"/>
<path d="M6.09134 37.128C8.38657 37.128 10.3287 39.9446 10.3287 43.3587C10.3287 46.7728 8.47484 49.5894 6.09134 49.5894C3.79612 49.5894 1.854 46.7728 1.854 43.3587C1.94228 39.8593 3.79612 37.128 6.09134 37.128Z" fill="#C44645"/>
<path d="M52.8784 45.1511L51.1128 61.1972L50.4949 61.1118L48.9942 60.9411L37.518 59.7462H37.0767L38.8422 43.7001L39.3719 43.7854L52.437 45.1511H52.6136H52.8784Z" fill="#575756"/>
<path d="M37.959 58.8073L36.7231 58.6366L38.3121 44.5536L39.548 44.7243C40.7839 44.895 41.6667 45.9192 41.5784 47.1141L40.5191 56.8442C40.3425 58.1245 39.2832 58.978 37.959 58.8073Z" fill="#3C3C3B"/>
<path opacity="0.1" d="M52.8784 45.1511L51.1128 61.1972L50.4949 61.1118L49.7887 66.6597C49.6121 67.4279 48.9059 68.2814 48.0231 68.9642C47.1403 69.7324 45.9927 70.0738 44.8451 70.0738L22.7757 69.9884L18.7149 70.842C15.9783 71.9515 12.5354 72.3783 11.2995 72.4636C11.0347 72.4636 10.6816 72.549 10.505 72.549C10.2402 72.549 9.88709 72.549 9.35742 72.4636C11.4761 72.0369 13.5948 71.5248 15.6251 70.9273C17.7438 70.3298 19.9508 69.647 21.3632 68.0253C21.7163 68.1107 22.0694 68.196 22.5108 68.2814C25.3357 68.8789 23.0405 68.7082 25.8654 68.5375C30.191 68.2814 36.1056 68.196 40.4312 67.8546C43.4327 67.5986 46.081 67.5132 47.7583 65.1234C48.1114 64.6966 48.5528 63.1603 48.9942 61.0265C49.9652 57.1003 51.2011 51.0403 52.2605 46.0046C52.3487 45.7485 52.3487 45.4071 52.437 45.1511C52.5253 44.5536 52.7018 43.9561 52.7901 43.444L52.5253 45.1511H52.8784Z" fill="#1D1D1B"/>
</svg>
