<svg width="41" height="43" viewBox="0 0 41 43" fill="none" xmlns="http://www.w3.org/2000/svg">
<path d="M24.1034 12.6816H16.8964V17.7206H12.0918V25.2793H16.8964V30.3184H24.1034V25.2793H28.9081V17.7206H24.1034V12.6816ZM26.5058 20.2401V22.7598H21.7011V27.7988H19.2987V22.7598H14.4941V20.2401H19.2987V15.2012H21.7011V20.2401H26.5058Z" fill="#C44645"/>
<path d="M34.9957 6.29715C31.1238 2.23634 25.9758 0 20.5 0C15.0243 0 9.8762 2.23634 6.00426 6.29715C2.13232 10.358 0 15.7571 0 21.5C0 24.5688 0.604109 27.5333 1.79567 30.3109C2.79641 32.6439 4.16462 34.7416 5.87037 36.5607L1.2268 43H20.5C25.9758 43 31.1238 40.7636 34.9957 36.7028C38.8676 32.642 41 27.2429 41 21.5C41 15.7571 38.8676 10.358 34.9957 6.29715ZM20.5 40.4805H6.05575L9.08815 36.2755L8.28184 35.501C4.54531 31.9123 2.40234 26.8092 2.40234 21.5C2.40234 11.0341 10.5209 2.51953 20.5 2.51953C30.4791 2.51953 38.5977 11.0341 38.5977 21.5C38.5977 31.9659 30.4791 40.4805 20.5 40.4805Z" fill="#C44645"/>
</svg>
