<svg width="72" height="73" viewBox="0 0 72 73" fill="none" xmlns="http://www.w3.org/2000/svg">
<path d="M56.8057 58.2968L55.9424 58.5548L56.7194 51.7621L57.4963 51.4182L56.8057 58.2968Z" fill="#D69943"/>
<path d="M55.9424 58.5548L54.6475 58.0389L55.5108 50.9882L56.7194 51.7621L55.9424 58.5548Z" fill="#F9B659"/>
<path d="M56.7194 50.9022L55.5107 50.9882L56.7194 51.7621L57.4963 51.4181L56.7194 50.9022Z" fill="#FFBC45"/>
<path d="M58.7051 60.6184L57.8418 60.7043L60.259 54.3416L61.036 54.0836L58.7051 60.6184Z" fill="#D69943"/>
<path d="M57.8415 60.7044L56.7192 59.8446L59.2228 53.2238L60.2588 54.3416L57.8415 60.7044Z" fill="#F9B659"/>
<path d="M60.4318 53.3958L59.2231 53.2238L60.2591 54.3416L61.0361 54.0837L60.4318 53.3958Z" fill="#FFBC45"/>
<path d="M57.0646 60.4464L56.2876 60.5323L58.7049 53.4817L59.2229 53.8256L57.0646 60.4464Z" fill="#D69943"/>
<path d="M56.2876 60.5324L55.4243 60.2744L57.4099 53.0518L58.7049 53.4817L56.2876 60.5324Z" fill="#F9B659"/>
<path d="M55.9424 61.0482L55.0791 61.3062L56.0287 54.5995L56.8057 54.1696L55.9424 61.0482Z" fill="#D69943"/>
<path d="M55.0791 61.3062L53.7842 60.7903L54.8202 53.7397L56.0288 54.5995L55.0791 61.3062Z" fill="#F9B659"/>
<path d="M56.1153 53.6537L54.8203 53.7397L56.0289 54.5995L56.8059 54.1696L56.1153 53.6537Z" fill="#FFBC45"/>
<path d="M54.5612 58.8128L53.7842 59.0707L54.2158 52.278L54.8202 52.45L54.5612 58.8128Z" fill="#D69943"/>
<path d="M53.7841 59.0707L52.9208 58.9847L52.8345 52.192L54.2158 52.278L53.7841 59.0707Z" fill="#F9B659"/>
<path d="M51.8849 57.9529L51.1079 58.2968V51.5041L51.7986 50.9882L51.8849 57.9529Z" fill="#D69943"/>
<path d="M51.1078 58.2968L49.7266 57.9529L49.8129 50.8162L51.1078 51.5041V58.2968Z" fill="#F9B659"/>
<path d="M51.0216 50.6443L49.813 50.8163L51.1079 51.5041L51.7986 50.9882L51.0216 50.6443Z" fill="#FFBC45"/>
<path d="M49.8994 58.2968L49.1225 58.7267L49.0361 51.2462L49.5541 51.4181L49.8994 58.2968Z" fill="#D69943"/>
<path d="M49.1223 58.7267H48.259L47.5684 51.2462H49.036L49.1223 58.7267Z" fill="#F9B659"/>
<path d="M52.7481 58.4688L51.8848 58.7268L52.3164 51.5042L53.3524 51.9341L52.7481 58.4688Z" fill="#D69943"/>
<path d="M51.8848 58.7268L51.0215 58.5548L51.5395 51.7621L52.3164 51.5042L51.8848 58.7268Z" fill="#F9B659"/>
<path d="M54.3025 60.0165L53.6118 60.4464L55.3384 54.1696L56.1154 53.8257L54.3025 60.0165Z" fill="#D69943"/>
<path d="M53.6116 60.4464L52.5757 60.1025L54.3886 53.6537L55.3383 54.1696L53.6116 60.4464Z" fill="#F9B659"/>
<path d="M55.511 53.2238L54.3887 53.6537L55.3383 54.1696L56.1153 53.8257L55.511 53.2238Z" fill="#FFBC45"/>
<path d="M49.4679 59.3286L48.7772 59.8445L47.3096 53.2238L47.8276 52.6219L49.4679 59.3286Z" fill="#D69943"/>
<path d="M48.777 59.8445L47.3094 59.7585L45.8418 52.7938L47.3094 53.2237L48.777 59.8445Z" fill="#F9B659"/>
<path d="M46.9641 52.364L45.8418 52.7939L47.3094 53.2238L47.8274 52.6219L46.9641 52.364Z" fill="#FFBC45"/>
<path d="M47.8274 60.7904L47.1368 61.2203L45.8418 53.9117L46.4461 53.9977L47.8274 60.7904Z" fill="#D69943"/>
<path d="M47.1366 61.2203L46.2733 61.3922L44.374 54.1696L45.8416 53.9117L47.1366 61.2203Z" fill="#F9B659"/>
<path d="M49.9855 60.2744L49.2085 60.5324L49.6401 53.3098L50.6761 53.7397L49.9855 60.2744Z" fill="#D69943"/>
<path d="M49.2085 60.5324L48.3452 60.3604L48.8632 53.5677L49.6402 53.3098L49.2085 60.5324Z" fill="#F9B659"/>
<path d="M51.6257 61.5642L51.1077 62.1661L50.9351 55.6313L51.6257 55.1154V61.5642Z" fill="#D69943"/>
<path d="M51.1076 62.1661H50.0716L49.8989 55.4594L50.9349 55.6313L51.1076 62.1661Z" fill="#F9B659"/>
<path d="M50.8486 54.6855L49.8989 55.4593L50.9349 55.6313L51.6255 55.1154L50.8486 54.6855Z" fill="#FFBC45"/>
<path d="M53.6115 60.7904L53.0936 61.3923L52.9209 54.8575L53.6115 54.3416V60.7904Z" fill="#D69943"/>
<path d="M53.0934 61.3922H52.0574L51.8848 54.6855L52.9207 54.8575L53.0934 61.3922Z" fill="#F9B659"/>
<path d="M52.8344 53.9117L51.8848 54.6855L52.9207 54.8575L53.6114 54.3416L52.8344 53.9117Z" fill="#FFBC45"/>
<path d="M52.7482 63.1119L51.9712 63.2838L52.4028 56.1472L53.4388 56.5771L52.7482 63.1119Z" fill="#D69943"/>
<path d="M51.9712 63.2838L51.1079 63.1979L51.6259 56.3192L52.4029 56.1472L51.9712 63.2838Z" fill="#F9B659"/>
<path d="M58.1007 73H50.0719L48.4316 59.1567H59.6547L58.1007 73Z" fill="#C44645"/>
<path d="M56.5468 59.1567L56.1151 62.768L56.0288 63.6278L55.5108 68.013L55.4244 68.9588L54.9928 73H46.8777L46.446 68.9588L46.3597 68.013L45.8417 63.6278L45.7554 62.768L45.3237 59.1567H56.5468Z" fill="#C44645"/>
<path d="M56.1151 62.7679L56.0288 63.6278L55.5108 68.0129L55.4244 68.9588H46.446L46.3597 68.0129L45.8417 63.6278L45.7554 62.7679H56.1151Z" fill="white"/>
<path d="M56.0288 63.6278L55.5109 68.013H46.3598L45.8418 63.6278H56.0288Z" fill="#F9B659"/>
<path d="M40.2302 26.8269C40.4029 26.5689 40.6619 26.3969 40.9208 26.225C41.1798 26.053 41.4388 26.053 41.7842 25.967C42.2158 25.7951 42.4748 25.6231 42.8201 25.3651C43.1655 25.1072 43.4244 24.9352 43.6834 24.5913C43.8561 24.4193 44.0288 24.1614 44.2878 24.1614C44.4604 24.1614 44.7194 24.3333 44.8057 24.5053C44.8921 24.6773 44.8921 24.9352 44.8921 25.1072C44.2878 26.053 43.6834 26.9988 43.0791 28.0306C42.9065 28.2886 42.7338 28.6325 42.3885 28.8045C41.8705 29.0624 41.2662 28.8045 40.7482 28.5465C40.4029 28.3746 39.9712 28.0306 39.9712 27.6867C39.8849 27.2568 40.0575 26.9988 40.2302 26.8269Z" fill="#F9B659"/>
<path d="M44.288 41.444L41.8707 44.3675L38.4175 41.702L40.6621 39.2945C40.0578 38.5206 42.1297 34.6513 42.1297 34.6513C42.5614 34.0495 43.4247 33.5336 44.288 32.7597C46.4463 34.0495 48.0002 35.9411 48.9499 37.5748C48.9499 37.5748 47.8276 38.9505 47.4822 39.3804C46.1009 41.0141 45.065 41.3581 44.288 41.444Z" fill="#F2C194"/>
<path d="M47.0503 40.3263C46.8777 40.4123 46.705 40.4983 46.5323 40.4983C46.187 40.5843 45.7554 40.6702 45.41 40.6702C45.2374 40.6702 45.3237 40.5843 45.151 40.5843C44.7194 40.5843 44.2877 40.4123 44.0287 40.2403C43.9424 40.1543 43.8561 40.0684 43.8561 39.9824C43.8561 39.8964 43.8561 39.8964 43.7697 39.8104C43.5108 39.0366 43.5108 38.9506 43.2518 38.0907C42.9928 37.1449 42.9928 37.1449 42.7338 36.1991C42.4748 35.2533 42.3885 35.2533 42.1295 34.3934C41.8705 33.4476 41.9568 33.4476 41.6115 32.5018C41.3525 31.556 40.5755 29.7503 40.3165 28.8045C40.1439 28.1166 40.0575 27.9447 39.9712 27.5148C40.3165 27.6007 40.6618 27.6867 41.0072 27.7727C41.0072 27.6867 41.0072 27.5148 41.0072 27.4288C41.0072 27.3428 41.0072 27.3428 41.0072 27.2568C41.0072 27.0848 41.0935 26.9129 41.1798 26.8269C41.1798 26.8269 41.1798 26.8269 41.2662 26.8269C41.6115 26.7409 42.0431 27.1708 42.3885 26.9989C42.6474 26.8269 42.5611 26.483 42.6474 26.225C42.7338 26.053 42.9064 25.8811 43.0791 25.7951H43.1654C43.2518 25.7091 43.4244 25.7091 43.5108 25.6231C43.8561 25.3652 44.2014 25.1072 44.3741 24.7633C44.4604 24.5913 44.5467 24.5053 44.6331 24.3334C45.669 25.1932 46.5323 26.397 47.0503 27.1708C47.0503 27.3428 47.0503 27.4288 46.964 27.5148V27.6007C46.964 27.6867 46.964 27.7727 46.964 27.7727C46.964 27.8587 47.0503 27.9447 47.1367 28.0307C47.223 28.1166 47.3093 28.2026 47.3956 28.2886C47.8273 29.2344 48.259 30.8681 48.5179 31.9859C48.5179 32.0719 48.4316 32.1579 48.4316 32.2439C48.4316 32.3298 48.4316 32.4158 48.3453 32.4158C48.3453 32.5878 48.259 32.6738 48.3453 32.7598C48.3453 32.8457 48.4316 32.8457 48.4316 32.9317C48.4316 32.9317 48.4316 32.9317 48.5179 33.0177C48.6043 33.1037 48.6906 33.1037 48.7769 33.2757C48.7769 33.2757 48.8633 33.3616 48.9496 33.4476C49.1223 36.1991 48.8633 39.2945 47.0503 40.3263Z" fill="#F9B659"/>
<path opacity="0.2" d="M46.5323 40.4983C46.187 40.5843 45.7554 40.6703 45.41 40.6703C45.2374 40.6703 45.3237 40.5843 45.151 40.5843C44.7194 40.5843 44.2877 40.4123 44.0287 40.2403C43.9424 40.1544 43.8561 40.0684 43.8561 39.9824C43.8561 39.8964 43.8561 39.8964 43.7697 39.8104C43.5108 39.0366 43.5108 38.9506 43.2518 38.0907C42.9928 37.1449 42.9928 37.1449 42.7338 36.1991C42.4748 35.2533 42.3885 35.2533 42.1295 34.3935C41.8705 33.4476 41.9568 33.4476 41.6115 32.5018C41.3525 31.556 40.5755 29.7503 40.3165 28.8045C40.1439 28.1167 40.0575 27.9447 39.9712 27.5148C40.3165 27.6008 40.6618 27.6867 41.0072 27.7727C41.0935 28.6326 42.1295 29.3204 42.2158 30.2662C42.3021 30.6962 42.0431 31.2121 42.3021 31.556C42.4748 31.8139 42.9064 31.9859 43.0791 32.3298C43.1654 32.5018 43.1654 32.7598 43.2518 32.9317C43.3381 34.1355 43.5971 35.3393 44.0287 36.3711C44.2877 36.973 44.5467 37.5748 44.7194 38.1767C44.892 38.7786 44.892 39.5525 45.41 39.9824C45.669 40.2403 46.1007 40.3263 46.5323 40.4983Z" fill="#1D1D1B"/>
<path d="M48.9498 33.5336C48.6908 34.0495 48.4318 34.4794 48.1728 34.9953C48.1728 34.9953 48.1728 35.0813 48.0865 35.0813C47.9138 35.3392 47.7412 35.5972 47.5685 35.9411C47.5685 36.0271 47.4822 36.1131 47.3958 36.1131C47.3958 36.1991 47.3095 36.1991 47.3095 36.2851C47.3095 36.371 47.2232 36.371 47.2232 36.457C47.1369 36.543 47.0505 36.629 46.9642 36.715C46.7915 36.9729 46.5325 37.2309 46.3599 37.4028C46.1872 37.5748 46.0146 37.6608 45.8419 37.8328C46.0146 37.5748 46.1872 37.2309 46.2735 36.9729C46.5325 36.543 46.7915 36.0271 46.9642 35.5972C47.3095 34.9953 47.5685 34.3074 47.8275 33.7055C47.9138 33.4476 48.0002 33.2756 48.1728 33.0177C48.0002 32.9317 47.8275 32.7597 47.6548 32.6737C47.0505 32.2438 46.5325 31.8999 45.9282 31.47C45.9282 31.47 45.9282 31.556 45.8419 31.556C45.7556 31.6419 45.7556 31.7279 45.6692 31.8139C45.6692 31.8999 45.5829 31.8999 45.5829 31.9859C45.5829 31.9859 45.5829 32.0719 45.4966 32.0719C45.4966 32.0719 45.4966 32.1578 45.4102 32.1578C45.3239 32.2438 45.2376 32.3298 45.1512 32.5018C44.8923 32.8457 44.6333 33.1037 44.2879 33.3616C44.2016 33.4476 44.2016 33.4476 44.1153 33.5336C44.2016 33.3616 44.2879 33.2756 44.3743 33.1037C44.4606 32.9317 44.5469 32.7597 44.7196 32.5878C44.9786 32.1578 45.1512 31.6419 45.4102 31.212C44.8923 30.8681 44.2879 30.6101 43.6836 30.2662C43.511 30.1802 43.3383 30.0942 43.1656 30.0083H43.0793C43.9426 30.0942 44.8059 30.3522 45.6692 30.6961C45.9282 30.0083 46.1872 29.4064 46.4462 28.7185C46.4462 28.6325 46.5325 28.5465 46.5325 28.4605C46.5325 28.3746 46.6189 28.2886 46.6189 28.2026C46.4462 28.1166 46.2735 27.9446 46.0146 27.8587C44.9786 27.2568 43.9426 26.6549 42.8203 26.053H42.9066C42.993 25.967 43.1656 25.967 43.252 25.881C44.0289 26.053 44.7196 26.311 45.4102 26.6549C45.9282 26.9128 46.4462 27.1708 46.8779 27.4287C46.8779 27.6007 46.8779 27.6867 46.7915 27.7727V27.8587C46.7915 27.9446 46.7915 28.0306 46.7915 28.0306C46.7915 28.1166 46.8779 28.2026 46.9642 28.2886C47.0505 28.3746 47.1369 28.4605 47.2232 28.5465C47.2232 28.6325 47.1369 28.7185 47.1369 28.8905C47.1369 28.9764 47.0505 29.0624 47.0505 29.1484C46.9642 29.4064 46.8779 29.5783 46.7915 29.8363C46.7052 30.0083 46.6189 30.1802 46.5325 30.3522C46.4462 30.4382 46.4462 30.5242 46.3599 30.6101C46.2735 30.6961 46.2735 30.7821 46.1872 30.8681C46.5325 31.0401 46.8779 31.212 47.2232 31.47C47.3958 31.556 47.4822 31.6419 47.6548 31.7279C47.8275 31.8139 48.0002 31.8999 48.0865 32.0719C48.1728 32.1578 48.2592 32.1578 48.3455 32.2438C48.3455 32.3298 48.2592 32.4158 48.2592 32.5018C48.2592 32.5878 48.2592 32.6737 48.1728 32.6737C48.1728 32.8457 48.0865 32.9317 48.1728 33.0177C48.1728 33.1037 48.2592 33.1037 48.2592 33.1896C48.2592 33.1896 48.2592 33.1896 48.3455 33.2756C48.4318 33.3616 48.5181 33.3616 48.6045 33.5336C48.8635 33.3616 48.9498 33.4476 48.9498 33.5336Z" fill="#AB5B29"/>
<path opacity="0.2" d="M48.5179 32.4158C48.1725 32.1579 47.7409 31.9859 47.3956 31.728C47.2229 31.642 47.1366 31.556 46.9639 31.47C46.7049 31.384 46.4459 31.2121 46.1869 31.1261C46.1869 31.1261 46.1006 31.1261 46.1006 31.0401V30.9541C46.5322 30.0943 46.8776 29.1485 47.1366 28.2026C47.2229 28.2886 47.3092 28.3746 47.3956 28.4606C47.1366 29.2344 46.7912 30.0943 46.3596 30.7821C47.0502 31.1261 47.7409 31.556 48.3452 31.9859C48.4315 32.0719 48.5179 32.0719 48.6042 32.1579C48.6042 32.2439 48.6042 32.3298 48.5179 32.4158Z" fill="#1D1D1B"/>
<path opacity="0.2" d="M44.2881 33.4476C44.3744 33.2756 44.4607 33.1896 44.5471 33.0177C44.6334 33.0177 44.6334 32.9317 44.7197 32.9317C44.8924 32.8457 44.9787 32.6737 45.1514 32.5018C45.3241 32.2438 45.583 31.8999 45.7557 31.6419C45.842 31.556 45.9284 31.47 46.101 31.47C45.6694 32.1578 45.1514 32.7597 44.5471 33.2756C44.4607 33.3616 44.3744 33.3616 44.2881 33.4476Z" fill="#1D1D1B"/>
<path opacity="0.2" d="M45.3238 30.6102C44.8058 30.4382 44.5468 30.2662 44.0288 30.1803C43.9425 30.1803 43.8562 30.1803 43.7698 30.1803C43.5972 30.0943 43.4245 30.0083 43.2519 29.9223H43.1655C44.0288 30.0083 44.8921 30.2662 45.7555 30.5242C45.7555 30.6102 45.7555 30.6102 45.6691 30.6962L45.3238 30.6102Z" fill="#1D1D1B"/>
<path opacity="0.2" d="M45.8418 37.8328C46.0145 37.5748 46.1871 37.2309 46.2735 36.973C46.4461 36.887 46.5324 36.715 46.7051 36.629C47.0504 36.3711 47.2231 35.9412 47.4821 35.5972C47.6547 35.3393 47.7411 35.1673 47.9137 34.9094C48.0001 34.7374 48.0864 34.6514 48.1727 34.4794C48.3454 34.2215 48.4317 33.9635 48.6044 33.7056C48.6907 33.6196 48.7771 33.5336 48.8634 33.4476C48.8634 33.4476 48.9497 33.5336 49.036 33.6196C48.7771 34.1355 48.5181 34.5654 48.2591 35.0813C47.7411 35.9412 47.1368 36.801 46.4461 37.4889C46.1871 37.4889 46.0145 37.6608 45.8418 37.8328Z" fill="#1D1D1B"/>
<path opacity="0.2" d="M46.9639 27.1708C46.9639 27.3428 46.9639 27.4288 46.8776 27.5147C46.7912 27.5147 46.7912 27.5147 46.7049 27.4288C46.3596 27.2568 46.0143 27.0848 45.6689 26.9129C45.5826 26.8269 45.4099 26.8269 45.3236 26.7409C44.5466 26.397 43.7697 26.053 42.9927 25.7951C43.079 25.7091 43.2517 25.7091 43.338 25.6231C44.115 25.7951 44.8056 26.053 45.4963 26.397C46.0143 26.6549 46.5322 26.9129 46.9639 27.1708Z" fill="#1D1D1B"/>
<path opacity="0.2" d="M47.0506 40.3263C47.4822 39.3805 48.0002 38.3487 48.1729 37.3169C48.2592 36.715 48.2592 36.1991 48.1729 35.5972C48.1729 35.4252 48.1729 35.1673 48.0865 34.9953C48.0865 34.8233 48.0865 34.7374 48.0865 34.5654C48.0865 34.2215 48.0002 33.9635 47.9139 33.6196C47.8276 33.2756 47.8276 32.9317 47.7412 32.5878C47.6549 32.3298 47.6549 32.0719 47.5686 31.7279C47.5686 31.642 47.4822 31.47 47.4822 31.384C47.3096 30.7821 47.1369 30.2662 46.9642 29.6643C46.9642 29.4924 46.8779 29.4064 46.7916 29.2344C46.7053 28.9765 46.6189 28.7185 46.4463 28.4606C46.3599 28.2026 46.1873 27.8587 46.1009 27.6007C46.1009 27.6007 46.1009 27.5147 46.0146 27.5147C45.9283 27.3428 45.8419 27.0848 45.6693 26.9129C45.583 26.7409 45.4966 26.5689 45.4103 26.397C45.2376 26.139 45.065 25.7951 44.8923 25.5371C44.7196 25.2792 44.4607 24.9352 44.2017 24.6773C44.288 24.5053 44.3743 24.4193 44.4607 24.2474C45.4966 25.1072 46.3599 26.311 46.8779 27.0848C46.8779 27.2568 46.8779 27.3428 46.7916 27.4288V27.5147C46.7916 27.6007 46.7916 27.6867 46.7916 27.6867C46.7916 27.7727 46.8779 27.8587 46.9642 27.9447C47.0506 28.0306 47.1369 28.1166 47.2232 28.2026C47.6549 29.1484 48.0865 30.7821 48.3455 31.8999C48.3455 31.9859 48.2592 32.0719 48.2592 32.1579C48.2592 32.2438 48.2592 32.3298 48.1729 32.3298C48.1729 32.5018 48.0865 32.5878 48.1729 32.6738C48.1729 32.7597 48.2592 32.7597 48.2592 32.8457C48.2592 32.8457 48.2592 32.8457 48.3455 32.9317C48.4319 33.0177 48.5182 33.0177 48.6045 33.1897C48.6045 33.1897 48.6909 33.2756 48.7772 33.3616C49.1225 36.1991 48.8635 39.2945 47.0506 40.3263Z" fill="white"/>
<path d="M42.8201 30.4382C43.338 30.6101 43.4244 31.126 43.2517 31.5559C43.079 32.1578 42.4747 33.6195 42.1294 34.3074C42.1294 34.3074 44.633 36.543 42.3884 39.7244L44.2014 41.3581L36.2589 53.8257L29.6978 46.0872L40.1438 38.5206C39.1942 37.3168 39.7985 35.1673 39.8848 34.7373C40.1438 34.0495 41.0071 32.6737 41.4388 31.212C41.7841 30.1802 42.3021 30.2662 42.8201 30.4382Z" fill="#FFCFA1"/>
<path d="M50.2444 36.8869C50.2444 37.4028 49.8128 37.8328 49.3811 37.8328H48.3451C47.8272 37.8328 47.3955 37.4028 47.3955 36.8869C47.3955 36.371 47.8272 36.0271 48.3451 36.0271H49.3811C49.8128 36.0271 50.2444 36.371 50.2444 36.8869Z" fill="#FFCFA1"/>
<path d="M49.7266 30.6961C49.8993 31.212 49.6403 31.642 49.1223 31.8139L48.1726 32.1579C47.6547 32.3298 47.223 32.0719 47.0503 31.556C46.8777 31.0401 47.1367 30.6102 47.6547 30.4382L48.6043 30.0943C49.036 29.9223 49.5539 30.1802 49.7266 30.6961Z" fill="#FFCFA1"/>
<path d="M50.6762 34.5654C50.7626 35.0813 50.5036 35.5112 49.9856 35.5972L48.3453 35.9411C47.8273 36.0271 47.3957 35.7691 47.3093 35.2532C47.223 34.7373 47.482 34.3074 48 34.2214L49.6403 33.8775C50.0719 33.7915 50.5899 34.0495 50.6762 34.5654Z" fill="#FFCFA1"/>
<path d="M50.3308 32.4158C50.5035 32.8457 50.2445 33.3616 49.7265 33.5336L48.0862 34.0495C47.6546 34.2214 47.1366 33.9635 46.9639 33.4476C46.7913 33.0177 47.0502 32.5018 47.5682 32.3298L49.2085 31.8139C49.6402 31.7279 50.1582 31.9859 50.3308 32.4158Z" fill="#FFCFA1"/>
<path d="M39.1078 72.6561H0.345213C-0.604427 58.2968 0.690537 43.6796 4.66176 32.5878C5.35241 30.6101 9.15097 24.2474 11.3092 24.5053L21.3236 25.7091C27.8848 35.5972 33.151 42.4759 36.1725 51.1602C38.1582 57.0071 39.2805 63.7138 39.1078 72.6561Z" fill="#4AA2B7"/>
<path d="M10.791 24.1614L12.086 15.4771C16.1435 15.2191 27.5392 23.6455 28.4889 23.4735C26.0716 25.1932 25.0356 26.7409 24.1723 28.4606C23.7407 29.4064 25.4673 31.8999 27.7982 35.4252C27.7982 35.4252 23.1363 29.8363 22.4457 29.3204C19.8558 28.4606 11.568 26.5689 10.791 24.1614Z" fill="#F2C194"/>
<path d="M10.6187 16.8528C9.84172 14.8752 9.41006 12.6396 9.32373 10.49C9.66905 0.687875 16.4892 1.20378 20.1151 1.20378C24.3453 1.37574 28.3165 4.2132 28.5755 10.662C28.4029 11.2638 28.1439 11.7797 28.1439 11.7797L30.0432 14.8752C30.3021 15.477 29.9568 16.1649 29.2662 16.2509L29.6115 20.808C29.0935 25.881 22.1007 25.1072 22.1007 25.1072C19.5108 24.8492 15.1942 21.5819 16.4029 16.5948C14.8489 16.5088 11.223 18.2285 10.6187 16.8528Z" fill="#FFCFA1"/>
<path d="M12.5181 18.9164C19.0792 20.2921 15.367 12.8115 15.367 12.8115C15.367 12.8115 16.8346 15.1331 17.3526 15.821C18.3886 15.821 18.3886 15.821 19.4245 15.735C19.8562 7.48057 18.2159 3.78328 27.367 5.67491C29.1799 5.33098 30.2159 -0.343933 19.0792 1.41468e-06C14.1583 0.171968 10.3598 2.83746 9.49647 7.65253C8.71949 12.2956 8.71949 17.7126 12.5181 18.9164Z" fill="#3C3C3B"/>
<path d="M14.3308 13.4994C14.3308 15.0471 15.6258 16.7668 16.6617 16.7668C17.6977 16.7668 17.525 15.563 17.525 14.0153C17.525 12.9835 17.784 11.6078 16.6617 11.2639C15.7121 10.9199 14.2445 11.1779 14.3308 13.4994Z" fill="#FFCFA1"/>
<path d="M20.8058 33.6196L7.59717 27.2568C8.89213 25.2792 9.84177 24.1614 10.8777 23.2156L22.5324 29.4064L20.8058 33.6196Z" fill="#EDEDED"/>
<path opacity="0.1" d="M39.1078 72.6561H0.345215C8.46033 71.6243 15.9711 69.2168 15.9711 65.2615C15.9711 62.854 14.7625 58.9847 13.8992 56.7491C12.2589 52.364 10.7049 46.947 9.15097 43.5077C8.02867 41.0142 8.02867 40.4983 9.4963 38.1767C10.9639 35.7692 14.5035 35.4252 17.0071 36.715C19.5107 38.0047 19.597 36.715 21.0646 39.1225C22.5323 41.5301 26.3308 48.2368 28.3164 50.5583C30.1294 52.6219 33.2373 51.9341 35.7409 51.3322C35.8272 51.3322 35.9999 51.2462 36.0862 51.2462C38.1582 57.0071 39.2805 63.7138 39.1078 72.6561Z" fill="#1D1D1B"/>
<path d="M8.8918 42.3899L20.5465 62.94L29.7839 58.1249L20.0285 37.4888C18.9925 35.4252 16.1436 33.6196 12.7767 35.4252C12.7767 35.5112 6.81985 38.4347 8.8918 42.3899Z" fill="#FFCFA1"/>
<path d="M20.2013 37.0589L24.4315 46.861L14.4171 52.192L8.37393 42.3899C4.14372 34.1355 16.0574 28.2886 20.2013 37.0589Z" fill="#4AA2B7"/>
<path d="M23.1365 54.9435L42.6473 55.5454L42.4746 60.8763C42.4746 60.8763 29.8703 63.7138 25.6401 64.7456C24.5177 65.0036 20.8055 65.0895 19.8559 62.2521L19.3379 60.0165C19.0789 57.1791 20.7192 54.9435 23.1365 54.9435Z" fill="#FFCFA1"/>
<path d="M51.7123 56.7491C51.7123 56.1472 51.1943 55.7173 50.6763 55.7173C48.8633 55.7173 46.964 55.5454 45.0648 55.2014L44.4604 57.265C46.6187 57.6949 48.6907 57.8669 50.7626 57.8669C51.2806 57.8669 51.7123 57.351 51.7123 56.7491Z" fill="#F2C194"/>
<path d="M45.5824 56.4912C45.7551 55.9753 46.1867 55.6313 46.6184 55.7173L52.4025 57.0931C52.8342 57.1791 53.0932 57.6949 52.9205 58.2109C52.7479 58.7268 52.3162 59.0707 51.8846 58.9847L46.1004 57.609C45.6687 57.437 45.4097 57.0071 45.5824 56.4912Z" fill="#F2C194"/>
<path d="M47.2225 58.8127C47.3952 58.2968 47.8269 57.9529 48.2585 58.0389L51.1938 58.7267C51.6254 58.8127 51.8844 59.3286 51.7118 59.8445C51.5391 60.3604 51.1074 60.7044 50.6758 60.6184L47.7405 59.9305C47.3089 59.7585 47.0499 59.3286 47.2225 58.8127Z" fill="#F2C194"/>
<path d="M45.9281 60.4464C46.1008 59.9305 46.5324 59.5865 46.9641 59.6725L49.3813 60.1884C49.813 60.2744 50.072 60.7903 49.8993 61.3062C49.7267 61.8221 49.295 62.166 48.8634 62.0801L46.4461 61.5642C46.0144 61.3922 45.7554 60.9623 45.9281 60.4464Z" fill="#F2C194"/>
<path d="M45.4102 62.1661C45.4965 61.7362 45.9282 61.3922 46.3598 61.4782L48.5181 61.9941C48.8634 62.0801 49.1224 62.51 48.9497 62.9399C48.8634 63.3699 48.4318 63.7138 48.0001 63.6278L45.8418 63.1119C45.4965 63.1119 45.3239 62.682 45.4102 62.1661Z" fill="#F2C194"/>
<path d="M49.6401 57.437C49.8128 56.9211 49.4675 56.4052 48.9495 56.2332L46.9639 55.7173V55.6313L44.7193 55.0294C43.1653 54.6855 41.6113 55.5453 41.266 57.093L40.8344 58.8987C40.489 60.4464 41.3524 61.9941 42.9063 62.338L45.1509 62.9399V62.8539L46.5322 63.1979C46.9639 63.2839 47.4819 63.0259 47.5682 62.596C47.6545 62.1661 47.3955 61.6502 46.9639 61.5642L47.2229 61.6502C47.7408 61.7362 48.2588 61.4782 48.3452 60.9623C48.4315 60.4464 48.1725 59.9305 47.6545 59.8445L47.9135 59.9305C48.4315 60.0165 48.9495 59.7585 49.0358 59.2426C49.1221 58.7267 48.8631 58.2108 48.3452 58.1248C49.0358 58.2108 49.4675 57.9529 49.6401 57.437Z" fill="#FFCFA1"/>
<path d="M71.3955 73H55.856C55.597 73 55.4243 72.828 55.4243 72.5701V71.0224C55.4243 70.7644 55.597 70.5925 55.856 70.5925H71.3092C71.5682 70.5925 71.7409 70.7644 71.7409 71.0224V72.5701C71.8272 72.7421 71.6545 73 71.3955 73Z" fill="#F9B659"/>
<path d="M70.273 67.4111H56.9781C56.4601 67.4111 56.1147 67.0671 56.1147 66.5512C56.1147 66.0353 56.4601 65.6914 56.9781 65.6914H70.273C70.791 65.6914 71.1363 66.0353 71.1363 66.5512C71.1363 66.9812 70.7047 67.4111 70.273 67.4111Z" fill="#683C11"/>
<path d="M71.8272 67.583V68.6148C71.8272 68.8728 71.6545 69.0447 71.3955 69.0447H55.856C55.597 69.0447 55.4243 68.8728 55.4243 68.6148V67.583C55.4243 67.3251 55.597 67.1531 55.856 67.1531H71.3092C71.6545 67.0671 71.8272 67.3251 71.8272 67.583Z" fill="#F9B659"/>
<path d="M71.3953 65.7774H55.8558C55.4241 65.7774 55.0788 65.3475 55.2515 64.9175C55.4241 64.3157 55.9421 63.7998 56.6328 63.2839C58.1867 62.1661 60.6903 61.4782 63.6256 61.4782C66.3881 61.4782 68.8054 62.1661 70.3594 63.1119C71.1363 63.6278 71.7407 64.2297 71.9133 64.9175C72.086 65.3475 71.827 65.7774 71.3953 65.7774Z" fill="#F9B659"/>
<path d="M70.3593 63.1119C69.8413 63.5418 69.3233 63.8858 68.719 63.7138C68.201 63.5418 67.6831 63.0259 67.1651 63.1119C66.6471 63.1979 66.3018 63.7998 65.7838 64.0577C65.3521 64.3157 64.7478 64.2297 64.2298 64.0577C63.7118 63.8858 63.1939 63.6278 62.6759 63.7138C62.2442 63.7138 61.8126 63.9717 61.3809 64.1437C60.9493 64.3157 60.4313 64.4017 59.9996 64.3157C59.568 64.1437 59.2226 63.6278 59.4816 63.1979C58.8773 63.3699 58.3593 63.5418 57.755 63.7138C57.4097 63.7998 56.978 63.8858 56.719 63.6278C56.6327 63.5418 56.6327 63.4558 56.5464 63.3699C58.1003 62.2521 60.6039 61.5642 63.5392 61.5642C66.3881 61.4782 68.8054 62.1661 70.3593 63.1119Z" fill="#FFE08C"/>
<path d="M62.3306 61.9082C62.4169 61.9082 62.4169 61.9082 62.5032 61.9942C62.5032 62.0801 62.5032 62.0801 62.5896 62.1661C62.6759 62.0801 62.8486 62.1661 62.9349 62.2521C62.9349 62.2521 62.9349 62.1661 63.0212 62.1661C63.0212 62.2521 63.1075 62.2521 63.1939 62.1661C63.1939 62.0801 63.1939 62.0801 63.1939 61.9942C63.1939 61.9082 63.1075 61.9082 63.0212 61.9082C62.9349 61.8222 62.9349 61.7362 62.7622 61.7362C62.6759 61.7362 62.6759 61.7362 62.5896 61.8222C62.5032 61.8222 62.4169 61.8222 62.3306 61.9082Z" fill="#AD7218"/>
<path d="M63.7983 61.6502C63.7983 61.7362 63.8847 61.7362 63.8847 61.8222C63.8847 61.9082 63.7983 61.9082 63.7983 61.9941C63.8847 62.0801 63.971 62.1661 63.971 62.2521H64.0573C64.0573 62.3381 64.1437 62.3381 64.1437 62.3381C64.23 62.3381 64.23 62.2521 64.23 62.1661C64.23 62.0801 64.23 62.0801 64.23 61.9941C64.23 61.9082 64.23 61.8222 64.23 61.7362C64.23 61.7362 64.1437 61.6502 64.0573 61.6502C63.971 61.6502 63.8847 61.6502 63.7983 61.6502Z" fill="#AD7218"/>
<path d="M63.6255 61.1343L63.5392 61.2203C63.4528 61.2203 63.4528 61.2203 63.3665 61.2203C63.3665 61.3062 63.2802 61.4782 63.1938 61.4782L63.2802 61.5642C63.1939 61.5642 63.1939 61.6502 63.2802 61.6502C63.2802 61.6502 63.3665 61.6502 63.4528 61.6502C63.5392 61.6502 63.5392 61.5642 63.5392 61.5642C63.6255 61.5642 63.7118 61.4782 63.7118 61.4782V61.3922C63.7118 61.3062 63.7118 61.2203 63.6255 61.1343Z" fill="#AD7218"/>
<path d="M61.6398 61.6502C61.5535 61.6502 61.5534 61.6502 61.4671 61.6502C61.4671 61.5642 61.3808 61.5642 61.3808 61.4782C61.2945 61.5642 61.1218 61.5642 61.0355 61.4782V61.5642C60.9491 61.4782 60.8628 61.5642 60.8628 61.6502C60.8628 61.7362 60.8628 61.7362 60.9491 61.8221C61.0355 61.9081 61.0355 61.9081 61.1218 61.9081C61.2081 61.9941 61.2945 62.0801 61.3808 61.9941C61.4671 61.9941 61.4671 61.9081 61.4671 61.9081C61.4671 61.9081 61.5535 61.8221 61.6398 61.6502Z" fill="#AD7218"/>
<path d="M61.7266 61.3922L61.8129 61.4782V61.5642C61.8992 61.5642 61.9856 61.6502 61.9856 61.7362C61.9856 61.7362 62.0719 61.7362 62.0719 61.6502C62.0719 61.7362 62.1582 61.7362 62.1582 61.7362L62.2445 61.6502C62.2445 61.5642 62.2445 61.5642 62.1582 61.5642C62.1582 61.4782 62.1582 61.3922 62.0719 61.3922H61.9856C61.8992 61.3063 61.8129 61.3063 61.7266 61.3922Z" fill="#AD7218"/>
<path d="M61.5537 62.424C61.5537 62.51 61.64 62.51 61.64 62.596C61.64 62.682 61.64 62.682 61.64 62.768C61.7264 62.768 61.899 62.94 61.899 63.0259C61.899 63.0259 61.9854 63.0259 61.9854 62.94C61.9854 63.0259 62.0717 63.0259 62.0717 63.0259C62.158 63.0259 62.158 62.94 62.158 62.854C62.158 62.768 62.158 62.768 62.0717 62.682C62.0717 62.596 62.0717 62.51 61.9854 62.424C61.9854 62.424 61.899 62.424 61.8127 62.424C61.7264 62.3381 61.64 62.3381 61.5537 62.424Z" fill="#AD7218"/>
<path d="M64.3162 62.596V62.682C64.3162 62.682 64.2299 62.682 64.2299 62.768C64.2299 62.854 64.2299 62.9399 64.1436 63.0259H64.2299V63.1119H64.3162L64.4025 63.0259C64.4889 63.0259 64.4889 62.9399 64.4889 62.854V62.768C64.4889 62.768 64.4025 62.682 64.3162 62.596Z" fill="#AD7218"/>
<path d="M63.3665 62.4241C63.3665 62.5101 63.3665 62.5101 63.3665 62.596C63.2802 62.596 63.2802 62.682 63.1938 62.682C63.2802 62.768 63.2802 62.94 63.1938 63.026H63.2802C63.1939 63.026 63.2802 63.1119 63.2802 63.1979C63.2802 63.2839 63.3665 63.1979 63.4528 63.1119C63.4528 63.1119 63.5392 63.026 63.5392 62.94C63.6255 62.854 63.7118 62.768 63.6255 62.768C63.6255 62.682 63.6255 62.682 63.5392 62.682C63.5392 62.596 63.4528 62.5101 63.3665 62.4241Z" fill="#AD7218"/>
<path d="M65.1797 62.424C65.266 62.424 65.266 62.424 65.3523 62.424C65.3523 62.424 65.3523 62.51 65.4387 62.51C65.525 62.424 65.6113 62.51 65.6977 62.51V62.424H65.784C65.784 62.338 65.784 62.338 65.784 62.2521L65.6977 62.1661C65.6113 62.0801 65.6113 62.0801 65.525 62.0801C65.525 62.0801 65.4387 62.0801 65.4387 62.1661C65.266 62.338 65.1797 62.424 65.1797 62.424Z" fill="#AD7218"/>
<path d="M64.5752 61.8221C64.6615 61.8221 64.6615 61.8221 64.7479 61.8221C64.7479 61.9081 64.8342 61.9081 64.8342 61.9941C64.9205 61.9081 65.0932 61.9081 65.1795 61.9941V61.9081C65.1795 61.9941 65.2658 61.9081 65.3522 61.9081C65.3522 61.8221 65.3522 61.8221 65.2658 61.7362C65.1795 61.7362 65.1795 61.6502 65.0932 61.6502C65.0068 61.5642 64.9205 61.4782 64.8342 61.4782C64.7479 61.4782 64.7479 61.4782 64.6615 61.5642C64.7479 61.6502 64.5752 61.7362 64.5752 61.8221Z" fill="#AD7218"/>
<path d="M65.9564 61.1343C65.9564 61.2203 65.9564 61.3062 65.9564 61.3062C65.87 61.3062 65.87 61.3922 65.7837 61.3922C65.87 61.4782 65.87 61.6502 65.7837 61.8221C65.87 61.8221 65.87 61.8221 65.9564 61.8221C65.87 61.8221 65.9564 61.9941 65.9564 61.9941C66.0427 61.9941 66.129 61.9941 66.129 61.9081C66.2153 61.8221 66.2153 61.8221 66.2153 61.7362C66.3017 61.6502 66.388 61.5642 66.388 61.4782C66.388 61.3922 66.3017 61.3922 66.3017 61.3062C66.2153 61.3062 66.0427 61.2203 65.9564 61.1343Z" fill="#AD7218"/>
<path d="M66.561 62.2521C66.6474 62.2521 66.6474 62.3381 66.7337 62.3381C66.7337 62.4241 66.7337 62.4241 66.7337 62.51C66.9064 62.51 66.9927 62.596 67.079 62.682L67.1654 62.596C67.1654 62.682 67.2517 62.682 67.338 62.596C67.4243 62.596 67.4243 62.51 67.338 62.4241C67.338 62.3381 67.2517 62.3381 67.2517 62.2521C67.2517 62.1661 67.1653 62.0801 67.079 61.9941C66.9927 61.9941 66.9927 61.9941 66.9064 61.9941C66.7337 62.1661 66.6474 62.2521 66.561 62.2521Z" fill="#AD7218"/>
<path d="M67.5967 61.5642L67.5104 61.6502C67.424 61.6502 67.424 61.6502 67.3377 61.6502C67.3377 61.7362 67.2514 61.9081 67.165 61.9081L67.2514 61.9941C67.165 61.9941 67.165 62.0801 67.2514 62.0801C67.2514 62.0801 67.3377 62.1661 67.424 62.0801C67.5104 62.0801 67.5104 61.9941 67.5104 61.9941C67.5967 61.9941 67.683 61.9081 67.683 61.9081C67.683 61.8222 67.683 61.8222 67.683 61.7362C67.683 61.7362 67.5967 61.6502 67.5967 61.5642Z" fill="#AD7218"/>
<path d="M59.9994 61.9941V62.0801C59.9994 62.0801 59.9994 62.1661 59.9131 62.1661C59.9994 62.1661 59.9994 62.2521 59.9994 62.3381H60.0857C60.0857 62.3381 60.0857 62.4241 60.1721 62.4241C60.1721 62.4241 60.2584 62.4241 60.2584 62.3381V62.2521C60.2584 62.1661 60.2584 62.1661 60.2584 62.0801C60.2584 62.0801 60.1721 62.0801 60.1721 61.9941C60.0857 61.9941 59.9994 61.9941 59.9994 61.9941Z" fill="#AD7218"/>
<path d="M60.1724 61.5642C60.1724 61.5642 60.1724 61.6502 60.2587 61.6502C60.2587 61.6502 60.2587 61.7362 60.1724 61.7362C60.2587 61.7362 60.345 61.8222 60.345 61.9081H60.4314C60.4314 61.9081 60.4314 61.9941 60.5177 61.9941L60.604 61.9081V61.8222C60.604 61.7362 60.604 61.6502 60.604 61.6502H60.5177C60.345 61.5642 60.2587 61.5642 60.1724 61.5642Z" fill="#AD7218"/>
<path d="M61.2946 62.51C61.2082 62.51 61.2082 62.51 61.1219 62.596C61.0356 62.596 61.0356 62.51 60.9492 62.51C60.8629 62.596 60.6902 62.682 60.6039 62.682V62.768C60.5176 62.768 60.5176 62.768 60.5176 62.8539C60.5176 62.9399 60.6039 62.9399 60.6039 63.0259C60.6039 63.1119 60.6902 63.0259 60.7766 63.0259C60.8629 63.0259 60.9492 63.1119 61.0356 63.0259C61.1219 63.0259 61.1219 62.9399 61.1219 62.8539C61.2082 62.682 61.2946 62.596 61.2946 62.51Z" fill="#AD7218"/>
<path d="M70.7047 70.5065H56.4601C56.2874 70.5065 56.1147 70.3345 56.1147 70.1625C56.1147 69.9906 56.2874 69.8186 56.4601 69.8186H70.7047C70.8773 69.8186 71.05 69.9906 71.05 70.1625C71.1363 70.3345 70.9637 70.5065 70.7047 70.5065Z" fill="#4AA2B7"/>
<path d="M70.6181 69.7327C68.2872 69.9906 66.1289 70.5925 64.316 71.9682C63.8843 72.3122 63.3663 72.2262 62.9347 71.9682C61.1217 70.7645 59.0498 69.9906 56.7189 69.7327C56.5462 69.7327 56.3735 69.5607 56.3735 69.3887C56.3735 69.2168 56.5462 69.0448 56.7189 69.0448H70.6181C70.7908 69.0448 70.9634 69.2168 70.9634 69.3887C70.9634 69.6467 70.7908 69.7327 70.6181 69.7327Z" fill="#FFE6A3"/>
<path d="M63.1938 71.2803C62.9348 71.2803 62.7621 71.1084 62.7621 70.8504C62.7621 70.5925 62.9348 70.4205 63.1938 70.4205C63.4528 70.4205 63.6254 70.5925 63.6254 70.8504V70.9364C63.6254 70.8504 63.7118 70.7644 63.7118 70.7644C63.7118 70.5065 63.4528 70.2485 63.1938 70.2485C62.9348 70.2485 62.6758 70.5065 62.6758 70.7644C62.6758 71.0224 62.9348 71.2803 63.1938 71.2803C63.1938 71.2803 63.1074 71.3663 63.1938 71.2803Z" fill="#FFA43F"/>
<path d="M65.5247 69.3027C65.7837 69.3027 66.0427 69.5607 66.0427 69.8186C66.0427 70.0766 65.7837 70.3345 65.5247 70.3345C65.2657 70.3345 65.0067 70.0766 65.0067 69.8186C65.0067 69.7326 65.0067 69.7327 65.0067 69.6467C65.0067 69.7327 64.9204 69.8186 64.9204 69.9046C64.9204 70.2486 65.1794 70.5065 65.5247 70.5065C65.8701 70.5065 66.1291 70.2486 66.1291 69.9046C66.1291 69.5607 65.8701 69.3027 65.5247 69.3027C65.4384 69.3027 65.5247 69.3027 65.5247 69.3027C65.4384 69.3027 65.4384 69.3027 65.5247 69.3027Z" fill="#FFA43F"/>
<path d="M60.4315 70.2485C60.1725 70.2485 59.9998 70.0766 59.9998 69.8186C59.9998 69.5607 60.1725 69.3887 60.4315 69.3887C60.6905 69.3887 60.8631 69.5607 60.8631 69.8186V69.9046C60.8631 69.8186 60.8631 69.7326 60.8631 69.7326C60.8631 69.4747 60.6041 69.2167 60.3451 69.2167C60.0861 69.2167 59.8271 69.4747 59.8271 69.7326C59.8271 69.9906 60.0861 70.2485 60.3451 70.2485C60.4315 70.2485 60.5178 70.2485 60.4315 70.2485C60.5178 70.2485 60.5178 70.2485 60.4315 70.2485Z" fill="#FFA43F"/>
<path d="M68.719 69.4747C68.719 69.6467 68.6326 69.7326 68.46 69.7326C68.2873 69.7326 68.201 69.6467 68.201 69.4747C68.201 69.3027 68.2873 69.2167 68.46 69.2167H68.5463C68.46 69.2167 68.46 69.2167 68.3736 69.2167C68.201 69.2167 68.0283 69.3887 68.0283 69.5607C68.0283 69.7326 68.201 69.9046 68.3736 69.9046C68.5463 69.9046 68.719 69.7326 68.719 69.4747C68.719 69.3887 68.719 69.3887 68.719 69.4747Z" fill="#FFA43F"/>
<path d="M62.5894 67.0671C62.5894 67.2391 62.503 67.4971 62.4167 67.669C62.244 67.841 62.0714 68.013 61.8987 68.1849C61.8124 68.2709 61.8124 68.2709 61.726 68.3569C61.2944 68.7008 60.7764 68.9588 60.3448 69.3027C60.1721 69.4747 59.9131 69.5607 59.7404 69.7326C59.8268 69.5607 59.9131 69.4747 59.9994 69.3027C60.0858 69.1307 60.1721 69.0448 60.2584 68.8728C59.7404 69.0448 59.2224 69.1307 58.7045 69.3027C58.2728 69.3887 57.8412 69.5607 57.4095 69.6466C57.4958 69.5607 57.6685 69.3887 57.7548 69.3027C58.1002 68.9588 58.3591 68.6148 58.7045 68.2709C57.9275 68.2709 57.1505 68.3569 56.3735 68.3569C57.2368 68.013 58.1002 67.583 58.9635 67.2391C58.8771 67.2391 58.7908 67.1531 58.7045 67.1531H62.5894V67.0671Z" fill="#4AB775"/>
<path d="M65.0927 67.4111C65.3517 67.841 65.6107 68.2709 65.7833 68.7008C65.6107 68.7008 65.438 68.6148 65.3517 68.6148C65.179 68.6148 65.0064 68.5288 64.7474 68.5288C64.7474 68.7868 64.7474 69.0447 64.7474 69.2167C64.7474 69.8186 64.7474 70.3345 64.7474 70.9364C64.402 70.3345 64.1431 69.8186 63.7977 69.2167C63.7114 69.0447 63.6251 68.8728 63.5387 68.7008C63.4524 68.8728 63.3661 69.0447 63.3661 69.2167C63.2797 69.5606 63.1071 69.8186 63.0207 70.1625C62.9344 69.8186 62.9344 69.5606 62.8481 69.2167C62.7618 68.8728 62.6754 68.5288 62.6754 68.0989C62.4164 68.3569 62.1574 68.6148 61.8984 68.8728C61.8984 68.6148 61.9848 68.3569 61.9848 68.0989C62.0711 67.755 62.1574 67.3251 62.3301 66.9811H65.8697C65.956 67.0671 66.0423 67.1531 66.1287 67.2391C65.7833 67.4111 65.438 67.4111 65.0927 67.4111Z" fill="#61DA91"/>
<path d="M69.6685 70.6785C68.8915 70.2485 68.1146 69.7326 67.3376 69.3027C67.4239 69.7326 67.5966 70.2485 67.6829 70.6785C67.1649 70.1625 66.7333 69.6466 66.2153 69.2167C66.1289 69.1307 65.9563 68.9588 65.87 68.8728C65.87 68.9588 65.87 69.1307 65.87 69.2167C65.87 69.3887 65.87 69.6466 65.87 69.8186C65.7836 69.6466 65.6973 69.3887 65.611 69.2167C65.5246 69.0448 65.4383 68.7868 65.352 68.6148C65.2656 68.3569 65.093 68.013 65.0067 67.755C64.9203 67.583 64.834 67.3251 64.834 67.0671H68.3736C68.5462 67.1531 68.7189 67.1531 68.8052 67.2391C68.4599 67.2391 68.2009 67.3251 67.8556 67.3251C68.6325 67.927 69.3232 68.5289 70.1002 69.0448C69.4959 68.9588 68.8915 68.8728 68.2872 68.7868C68.3736 68.8728 68.4599 69.0448 68.5462 69.1307C68.8915 69.7326 69.3232 70.2485 69.6685 70.6785Z" fill="#4AB775"/>
</svg>
