<svg width="40" height="41" viewBox="0 0 40 41" fill="none" xmlns="http://www.w3.org/2000/svg">
<g clip-path="url(#clip0)">
<path d="M33.4937 5.0643C30.3077 1.79855 26.0715 0 21.5657 0C17.0599 0 12.8237 1.79855 9.63758 5.0643C6.4843 8.29641 4.73313 12.5823 4.69742 17.1474L1.62774 23.4403C1.49055 23.7215 1.58774 24.0636 1.85078 24.2254L4.69688 25.9757V35.2632C4.69688 35.5955 4.95977 35.865 5.28399 35.865H10.9591V40.3983C10.9591 40.7306 11.222 41.0001 11.5463 41.0001C11.8705 41.0001 12.1334 40.7306 12.1334 40.3983V35.2632C12.1334 34.9309 11.8705 34.6614 11.5463 34.6614H5.87094V25.635C5.87094 25.4237 5.76274 25.2277 5.58594 25.119L2.92094 23.48L5.80891 17.5597C5.84969 17.4761 5.87094 17.3841 5.87094 17.2905C5.87094 8.42013 12.9116 1.20349 21.5656 1.20349C30.2197 1.20349 37.2603 8.42013 37.2603 17.2905C37.2603 22.2752 35.06 26.8971 31.2236 29.9714C31.0813 30.0854 30.998 30.2603 30.998 30.4455V40.3982C30.998 40.7305 31.2609 41 31.5852 41C31.9094 41 32.1723 40.7305 32.1723 40.3982V30.7358C36.156 27.4329 38.4345 22.5497 38.4345 17.2906C38.4345 12.6721 36.6799 8.33005 33.4937 5.0643Z" fill="#C44645"/>
<path d="M34.8589 16.707L29.0848 15.2256L33.3627 10.9835C33.5563 10.7915 33.5976 10.4892 33.463 10.2501C33.3284 10.011 33.0521 9.8964 32.7932 9.97239L27.07 11.6488L28.7055 5.78254C28.7795 5.51716 28.6679 5.23417 28.4346 5.09603C28.2013 4.9579 27.9064 5.00042 27.7191 5.19869L23.5805 9.58361L22.1352 3.66512C22.0698 3.39726 21.8351 3.20947 21.5658 3.20947C21.2965 3.20947 21.0616 3.39734 20.9963 3.66512L19.5511 9.58361L15.4123 5.19869C15.225 5.00034 14.9301 4.9579 14.6968 5.09595C14.4635 5.23393 14.3518 5.517 14.4258 5.78246L16.0614 11.6487L10.3382 9.97231C10.0792 9.89656 9.80319 10.011 9.66843 10.25C9.53374 10.4891 9.57515 10.7914 9.76858 10.9834L14.0466 15.2255L8.27241 16.7069C8.01108 16.7739 7.82788 17.0145 7.82788 17.2906C7.82788 17.5667 8.01116 17.8073 8.27241 17.8743L14.0466 19.3556L9.76858 23.5978C9.57499 23.7897 9.53366 24.092 9.66843 24.3311C9.80304 24.5702 10.0793 24.6847 10.3382 24.6088L16.0614 22.9324L14.4258 28.7987C14.3519 29.0641 14.4635 29.3471 14.6968 29.4852C14.9301 29.6232 15.2251 29.5809 15.4123 29.3825L19.551 24.9976L20.9962 30.9161C21.0616 31.184 21.2964 31.3717 21.5657 31.3717C21.8351 31.3717 22.0698 31.1839 22.1351 30.9161L23.5804 24.9976L27.7191 29.3825C27.9072 29.5818 28.2129 29.6224 28.4444 29.4791C28.6687 29.3403 28.7775 29.0571 28.7055 28.7987L27.0699 22.9325L32.7931 24.6089C33.0451 24.6827 33.3215 24.5711 33.4569 24.3412C33.5967 24.1039 33.557 23.7906 33.3627 23.5978L29.0848 19.3556L34.8589 17.8743C35.1202 17.8072 35.3034 17.5667 35.3034 17.2906C35.3034 17.0145 35.1202 16.7739 34.8589 16.707ZM27.7744 18.4511C27.3363 18.5635 27.1834 19.1449 27.5087 19.4674L30.8604 22.7911L26.3763 21.4776C25.9418 21.3501 25.5264 21.7762 25.6505 22.2215L26.9319 26.8177L23.6894 23.3823C23.3748 23.0489 22.8076 23.2055 22.6979 23.6546L21.5656 28.2916L20.4333 23.6546C20.3238 23.2059 19.7566 23.0488 19.4419 23.3823L16.1993 26.8178L17.4807 22.2216C17.6049 21.7762 17.1894 21.3505 16.7549 21.4777L12.2708 22.7911L15.6226 19.4675C15.9478 19.145 15.7949 18.5637 15.3569 18.4512L10.833 17.2907L15.3569 16.1301C15.7949 16.0177 15.9478 15.4364 15.6226 15.1138L12.2708 11.7902L16.7549 13.1036C17.1894 13.2308 17.6049 12.8052 17.4807 12.3597L16.1993 7.76344L19.4419 11.1989C19.7565 11.5323 20.3237 11.3756 20.4333 10.9266L21.5656 6.2896L22.6979 10.9266C22.8075 11.3756 23.3747 11.5323 23.6894 11.1989L26.9319 7.76344L25.6505 12.3596C25.5263 12.8052 25.9418 13.2305 26.3763 13.1035L30.8604 11.7901L27.5087 15.1137C27.3554 15.2657 27.2947 15.4908 27.3498 15.7019C27.4049 15.913 27.5674 16.0768 27.7744 16.1298L32.2983 17.2904L27.7744 18.4511Z" fill="#C44645"/>
<path d="M22.3875 15.7235C22.7117 15.7235 22.9746 15.454 22.9746 15.1217V13.3389C22.9746 12.5426 22.3425 11.8947 21.5656 11.8947C20.7595 11.8947 20.0784 12.5561 20.0784 13.3389C20.0784 13.3428 20.0784 13.3465 20.0784 13.3504L20.1567 17.5578C20.1601 18.3511 20.7909 18.9955 21.5656 18.9955C22.3425 18.9955 22.9746 18.3476 22.9746 17.5513C22.9746 17.2189 22.7117 16.9495 22.3875 16.9495C22.0633 16.9495 21.8004 17.2189 21.8004 17.5513C21.8004 17.684 21.695 17.792 21.5656 17.792C21.4361 17.792 21.3307 17.684 21.3307 17.5513C21.3307 17.5474 21.3307 17.5437 21.3306 17.5398L21.2525 13.3358C21.2556 13.2333 21.4089 13.0982 21.5656 13.0982C21.6951 13.0982 21.8005 13.2062 21.8005 13.3389V15.1216C21.8005 15.4541 22.0632 15.7235 22.3875 15.7235Z" fill="#C44645"/>
<path d="M15.4739 10.4869C15.4737 10.4866 15.5101 10.5738 15.4739 10.4869V10.4869Z" fill="#C44645"/>
<path d="M15.4739 10.4869C15.2723 9.93584 14.6933 9.5787 14.13 9.59639C13.5383 9.61497 13.0084 10.0268 12.8301 10.6047C12.6506 11.1867 12.8563 11.8383 13.3352 12.2012C13.8083 12.5598 14.4647 12.5746 14.9546 12.2418C15.508 11.8657 15.7288 11.1144 15.4739 10.4869ZM14.4025 11.0887C14.3442 11.3893 13.8879 11.299 13.9417 10.9982C13.997 10.6881 14.4632 10.7831 14.4025 11.0887Z" fill="#C44645"/>
</g>
<defs>
<clipPath id="clip0">
<rect width="40" height="41" fill="white"/>
</clipPath>
</defs>
</svg>
