<svg height="130" viewBox="0 0 128 128" width="130" xmlns="http://www.w3.org/2000/svg"><g><path d="m81.863 6.5c17.309 0 21.945 39.52 21.945 55.343 0 29.91-16.473 59.657-41.472 59.657-26.336 0-38.144-13.593-38.144-34.269 0-23.231 22.708-25.771 31.682-37.112 9.876-12.48.126-43.619 25.989-43.619z" fill="#f4a86c"/><g fill="#1e0c30"><path d="m98.5 32.016c.293 1.216.565 2.446.816 3.68a1.752 1.752 0 0 0 1.713 1.4 1.835 1.835 0 0 0 .352-.035 1.751 1.751 0 0 0 1.365-2.061c-.264-1.292-.547-2.57-.843-3.8a1.75 1.75 0 0 0 -3.4.819z"/><path d="m45.11 60.474a1.749 1.749 0 0 0 .927-.266c4.264-2.668 8.33-5.363 11.21-9 3.821-4.829 4.9-12.082 5.95-19.1 1.83-12.269 3.559-23.858 18.666-23.858 7.509 0 12.15 9.242 14.721 16.994a1.75 1.75 0 0 0 3.323-1.1c-4.269-12.87-10.34-19.394-18.044-19.394-18.123 0-20.251 14.26-22.128 26.842-1.024 6.863-1.991 13.345-5.233 17.441-2.533 3.2-6.328 5.709-10.322 8.208a1.75 1.75 0 0 0 .93 3.233z"/><path d="m103.883 41.4a1.75 1.75 0 1 0 -3.46.529 140.618 140.618 0 0 1 1.635 19.919c0 27.849-15.187 57.907-39.722 57.907-23.809 0-36.394-11.245-36.394-32.52 0-11.8 6.16-17.718 12.816-22.354a1.75 1.75 0 1 0 -2-2.872c-7.079 4.93-14.316 11.783-14.316 25.226 0 23.228 14.168 36.02 39.894 36.02 26.7 0 43.222-31.875 43.222-61.407a144.344 144.344 0 0 0 -1.675-20.448z"/><path d="m30.192 85.48a1.751 1.751 0 0 0 -1.75 1.75 41.636 41.636 0 0 0 .7 7.845 1.751 1.751 0 0 0 1.716 1.419 1.8 1.8 0 0 0 .333-.032 1.75 1.75 0 0 0 1.388-2.049 38.153 38.153 0 0 1 -.638-7.183 1.75 1.75 0 0 0 -1.749-1.75z"/><path d="m61.8 97.587a1.75 1.75 0 0 0 -1.352 3.229 27.079 27.079 0 0 1 10.992 8.092 1.75 1.75 0 0 0 2.872-2 30.054 30.054 0 0 0 -12.512-9.321z"/><path d="m81.265 26.444a1.75 1.75 0 0 0 1-3.189 13.381 13.381 0 0 0 -8.365-1.421 1.75 1.75 0 0 0 .609 3.447 10.371 10.371 0 0 1 5.763.853 1.743 1.743 0 0 0 .993.31z"/><path d="m81.722 81.564c1.71.527 6.5 3.021 7.6 4.445a1.75 1.75 0 0 0 2.77-2.141c-1.844-2.384-7.662-5.131-9.341-5.649a1.75 1.75 0 0 0 -1.032 3.345z"/><path d="m77.734 46.617a1.75 1.75 0 0 0 .909-3.247 22.1 22.1 0 0 0 -6.843-2.382 1.75 1.75 0 0 0 -.5 3.464 18.824 18.824 0 0 1 5.531 1.911 1.744 1.744 0 0 0 .903.254z"/></g></g></svg>