<svg width="47" height="47" viewBox="0 0 47 47" fill="none" xmlns="http://www.w3.org/2000/svg">
<path d="M19.3691 23.675C19.3691 25.9528 21.2222 27.8058 23.4999 27.8058C25.7777 27.8058 27.6307 25.9528 27.6307 23.675C27.6307 21.3973 25.7777 19.5443 23.4999 19.5443C21.2222 19.5443 19.3691 21.3973 19.3691 23.675ZM24.8769 23.675C24.8769 24.4343 24.2592 25.052 23.4999 25.052C22.7407 25.052 22.123 24.4343 22.123 23.675C22.123 22.9158 22.7407 22.2981 23.4999 22.2981C24.2592 22.2981 24.8769 22.9158 24.8769 23.675Z" fill="#C44645" fill-opacity="0.9"/>
<path d="M16.6152 34.6905V36.0674H30.3846V34.6905C30.3846 30.8943 27.2961 27.8058 23.4999 27.8058C19.7037 27.8058 16.6152 30.8942 16.6152 34.6905ZM23.4999 30.5597C25.295 30.5597 26.8265 31.7107 27.3948 33.3136H19.6051C20.1733 31.7107 21.7047 30.5597 23.4999 30.5597Z" fill="#C44645" fill-opacity="0.9"/>
<path d="M47 20.4613L23.5 2.67102L0 20.4613L1.66214 22.657L5.5998 19.676V44.3291H41.4V19.676L45.3378 22.657L47 20.4613ZM38.6462 41.5752H8.35375V17.5913L23.5 6.12501L38.6462 17.5913V41.5752Z" fill="#C44645" fill-opacity="0.9"/>
</svg>
