<svg width="130" height="130" viewBox="0 0 53 53" fill="none" xmlns="http://www.w3.org/2000/svg">
<path d="M31.5826 21.7854L29.8125 28.6064L36.2967 30.4406C37.0013 30.639 37.7393 30.6901 38.4645 30.5905C39.1897 30.4909 39.8866 30.2428 40.5117 29.8617L47.2987 25.7613C48.7875 24.8471 49.8604 23.3876 50.2888 21.6938C51.2166 18.1188 49.2136 14.4413 45.8151 13.4801C45.0054 13.252 44.1575 13.1934 43.3242 13.3079C42.4908 13.4223 41.6901 13.7074 40.9719 14.1453L34.1848 18.2457C32.8892 19.0414 31.9555 20.3115 31.5826 21.7854Z" fill="#5F8C46"/>
<path d="M32.043 21.4176L25.2221 23.1877L23.3879 16.7035C23.1894 15.9989 23.1384 15.2609 23.238 14.5357C23.3376 13.8105 23.5857 13.1136 23.9667 12.4886L28.0672 5.70156C28.9814 4.21276 30.4409 3.13984 32.1346 2.71141C35.7096 1.7836 39.3871 3.78662 40.3484 7.18515C40.5764 7.99479 40.635 8.84275 40.5206 9.67607C40.4061 10.5094 40.1211 11.3101 39.6832 12.0283L35.5827 18.8154C34.7871 20.111 33.517 21.0447 32.043 21.4176Z" fill="#5F8C46"/>
<path d="M46.7731 21.9432C46.2459 22.1207 45.6785 22.1411 45.14 22.0018C44.6014 21.8625 44.115 21.5696 43.7401 21.1588L47.3604 18.9715L46.5039 17.5538L42.9245 19.7164C42.6139 18.1194 44.1938 16.8016 44.2715 16.7378L43.2317 15.4487C42.1676 16.3072 40.6285 18.3641 41.4512 20.6066L29.3838 27.8973L30.2403 29.315L42.2989 22.0297C43.4027 23.3517 44.7722 23.7435 45.8835 23.7435C46.3875 23.7482 46.8883 23.6628 47.3623 23.4912L46.7731 21.9432Z" fill="#6A9C46"/>
<path d="M33.9528 12.4242C36.2094 12.4242 38.4779 10.6872 38.6014 10.591L37.5862 9.2829C36.8964 9.81622 35.0952 10.9081 33.7003 10.7547L36.2739 6.49481L34.8564 5.63843L32.2695 9.91994C31.2123 8.64897 31.457 6.76395 31.46 6.74201L30.6403 6.62483L29.8209 6.50475C29.8014 6.63808 29.4041 9.55173 31.3816 11.3895L24.5127 22.7591L25.9302 23.6156L32.7959 12.2514C33.1702 12.3687 33.5605 12.427 33.9528 12.4242Z" fill="#6A9C46"/>
<path d="M46.3957 25.7134C50.142 27.6779 51.5998 32.333 49.6518 36.111C49.1911 37.0071 48.5581 37.8036 47.7892 38.4549C47.0203 39.1061 46.1305 39.5993 45.1707 39.9062L36.2373 42.751C35.4042 43.0163 34.5268 43.1136 33.6559 43.0372C32.7849 42.9608 31.9378 42.7122 31.1637 42.3059L27.1926 40.4954C26.2079 40.0465 25.1002 39.9443 24.05 40.2056L24.0157 40.214C19.6433 41.5477 15.5818 43.7424 12.07 46.6689L8.45412 49.6815C7.80729 50.2205 6.99195 50.5157 6.14997 50.5157H6.08299C5.5538 50.5162 5.03103 50.3998 4.55208 50.1747C4.07314 49.9497 3.64985 49.6215 3.3125 49.2138L5.79687 47.2032C5.79687 47.2032 5.90039 47.583 10.041 44.2705C13.1303 41.799 18.0231 38.5763 23.4185 36.8588C24.2776 36.5893 25.006 36.0106 25.4629 35.2348L27.7325 31.3494C28.1334 30.5695 28.6842 29.8763 29.3534 29.3095C30.0226 28.7428 30.797 28.3136 31.6323 28.0465L40.5657 25.2016C41.523 24.8967 42.5312 24.785 43.532 24.8728C44.5328 24.9607 45.5062 25.2464 46.3957 25.7134Z" fill="#6A9C46"/>
<path d="M27.2867 6.6043C25.3222 2.85797 20.6671 1.40016 16.8891 3.34822C15.9929 3.80895 15.1965 4.44189 14.5452 5.21081C13.894 5.97973 13.4008 6.86954 13.0939 7.82931L10.2491 16.7627C9.98376 17.5958 9.88648 18.4732 9.96289 19.3441C10.0393 20.2151 10.2879 21.0622 10.6942 21.8363L12.5047 25.8074C12.9536 26.7921 13.0558 27.8998 12.7945 28.95L12.786 28.9843C11.4525 33.3567 9.25798 37.4183 6.33164 40.9301L3.31861 44.5459C2.77959 45.1927 2.48439 46.0081 2.48438 46.85V46.917C2.48386 47.4462 2.6003 47.969 2.82536 48.4479C3.05043 48.9269 3.37857 49.3502 3.78629 49.6875L5.79688 47.2031C5.79688 47.2031 5.41708 47.0996 8.72958 42.959C11.2011 39.8697 14.4238 34.9769 16.1413 29.5815C16.4108 28.7225 16.9895 27.994 17.7653 27.5371L21.6507 25.2675C22.4306 24.8666 23.1238 24.3158 23.6906 23.6466C24.2573 22.9774 24.6865 22.203 24.9536 21.3677L27.7985 12.4343C28.1034 11.477 28.2151 10.4688 28.1273 9.46798C28.0394 8.46719 27.7537 7.49381 27.2867 6.6043Z" fill="#6A9C46"/>
<path d="M20.0766 13.3811C22.5268 13.3811 24.1732 11.4732 24.7556 10.3077L23.2742 9.56696C23.0017 10.0566 22.6477 10.4962 22.2274 10.8668C21.5392 11.469 20.7782 11.7537 19.9571 11.7211C20.4927 8.46338 20.6841 6.06751 20.7 5.86017L19.0485 5.73315C19.0448 5.78243 18.86 8.08969 18.3428 11.2712C16.6086 10.3292 16.5623 8.37197 16.5618 8.27695L15.734 8.28109H14.9058C14.9058 9.52555 15.5863 11.9474 18.0493 12.9637C17.7614 14.5231 17.3998 16.2134 16.9503 17.9066C16.4497 17.638 16.0104 17.1968 15.6371 16.5854C15.295 16.0127 15.0428 15.3908 14.8894 14.7416L13.2656 15.0685C13.5303 16.3917 14.5123 18.6519 16.4936 19.5197C16.0748 20.9362 15.5683 22.3253 14.9772 23.679L16.4908 24.3519C17.1278 22.8942 17.6726 21.398 18.1218 19.8719C18.1542 19.8727 18.1856 19.8749 18.2183 19.8749C22.0833 19.8749 23.103 16.9489 23.1445 16.8243L21.5734 16.3005C21.5673 16.3188 20.964 18.0389 18.5909 18.2046C19.0308 16.5402 19.3859 14.8894 19.67 13.3616C19.8076 13.3731 19.9437 13.3811 20.0766 13.3811Z" fill="#79AD54"/>
<path d="M31.3094 14.0781C30.3098 14.0781 29.3199 14.275 28.3963 14.6576C27.4727 15.0401 26.6335 15.6009 25.9266 16.3077L19.2137 23.0206C18.6357 23.5986 18.1772 24.2848 17.8644 25.0401C17.5516 25.7953 17.3906 26.6047 17.3906 27.4221V33.125L10.0181 40.4975C8.31232 42.2033 6.44217 43.7365 4.43492 45.0746L3.68547 45.5743C3.31601 45.8206 3.01307 46.1543 2.80354 46.5458C2.59402 46.9372 2.48438 47.3744 2.48438 47.8184C2.48436 48.1726 2.55411 48.5233 2.68965 48.8506C2.82519 49.1778 3.02385 49.4752 3.2743 49.7256C3.52475 49.9761 3.82208 50.1748 4.14932 50.3103C4.47655 50.4459 4.82728 50.5156 5.18147 50.5156C5.62547 50.5156 6.06261 50.4061 6.45408 50.1966C6.84556 49.9871 7.17927 49.6842 7.42559 49.3148L7.92526 48.5654C9.26341 46.5581 10.7966 44.688 12.5024 42.9822L19.875 35.6094H25.5779C26.3953 35.6094 27.2047 35.4484 27.96 35.1356C28.7152 34.8228 29.4014 34.3643 29.9794 33.7863L36.6923 27.0734C37.3991 26.3665 37.9599 25.5273 38.3424 24.6037C38.725 23.6801 38.9219 22.6902 38.9219 21.6906C38.9218 19.6716 38.1198 17.7354 36.6922 16.3078C35.2646 14.8802 33.3284 14.0782 31.3094 14.0781Z" fill="#79AD54"/>
<path d="M34.6329 24.1327C34.5998 24.1524 31.5537 25.9339 29.5159 24.6555L34.5391 19.6323L33.368 18.4611L28.4303 23.3988C27.5426 21.3816 29.1252 18.6744 29.1438 18.6432L28.433 18.2188L27.7228 17.7927C27.2577 18.6132 26.9115 19.4956 26.6944 20.4134C26.3163 22.0517 26.4955 23.4861 27.2064 24.6231L23.4615 28.368C22.5739 26.3508 24.1564 23.6435 24.175 23.6124L23.4642 23.188L22.7541 22.7619C22.289 23.5824 21.9427 24.4648 21.7257 25.3826C21.3475 27.0208 21.5267 28.4553 22.2376 29.5923L20.1182 31.7118L21.2893 32.8829L23.3575 30.8148C24.1717 31.4313 25.1612 31.7454 26.2858 31.7454C26.8277 31.7419 27.3673 31.6768 27.8945 31.5515C28.8123 31.3345 29.6947 30.9882 30.5153 30.5231L29.6644 29.1021C29.6312 29.1218 26.5852 30.9033 24.5474 29.6249L28.3262 25.8466C29.1405 26.4631 30.13 26.7772 31.2546 26.7772C31.7964 26.7736 32.3361 26.7086 32.8632 26.5833C33.7811 26.3662 34.6635 26.02 35.484 25.5548L34.6329 24.1327Z" fill="#89BA66"/>
<path d="M40.5837 33.6764C42.6616 33.032 44.7259 32.5096 46.4781 32.2906L46.2727 30.6472C44.5277 30.8653 42.5203 31.3564 40.499 31.9664C40.7785 30.7313 41.5399 29.4952 41.9117 29.001L40.5911 28.0017C40.1769 28.5721 39.8167 29.1798 39.515 29.817C39.0539 30.7887 38.7978 31.6936 38.746 32.5222C37.4448 32.9536 36.1685 33.416 34.9836 33.8679C35.2528 32.6146 36.0307 31.3488 36.4082 30.8471L35.0874 29.8478C34.6733 30.4182 34.3131 31.0259 34.0114 31.6631C33.516 32.7071 33.257 33.6744 33.2343 34.5524C30.6615 35.584 28.8183 36.4305 28.6377 36.5138L29.3319 38.0177C29.3744 37.998 31.0996 37.2059 33.5646 36.2113C33.9735 36.9382 34.8336 37.6139 36.1732 38.2609C36.9127 38.6141 37.6758 38.9152 38.4572 39.1621L38.9378 37.5771C37.4274 37.1192 35.7053 36.2666 35.1342 35.5908C36.3363 35.1263 37.6449 34.6448 38.9807 34.1949C39.3456 34.9868 40.2327 35.7174 41.6768 36.4149C42.4163 36.7679 43.1795 37.0688 43.9608 37.3155L44.4413 35.7305C42.88 35.2575 41.0912 34.3621 40.5837 33.6764Z" fill="#79AD54"/>
</svg>